<?xml version="1.0" encoding="UTF-8"?>
<svg width="30px" height="30px" viewBox="0 0 30 30" version="1.1" xmlns="http://www.w3.org/2000/svg" xmlns:xlink="http://www.w3.org/1999/xlink">
    <g id="SL/icons/icon/bookmark(new)" stroke="none" stroke-width="1"  fill="#cba348">
        <g id="bookmark-white" transform="translate(2.000000, 0.000000)" fill="#cba348">
            <path  d="M24.9936917,0.991663792 C24.7358272,0.621291707 24.3885816,0.350440192 23.952719,0.178623102 C23.675131,0.0597956807 23.3842087,0 23.080091,0 L23.080091,0 L2.29994606,0 C1.99596732,0 1.70532281,0.0595178843 1.42766528,0.178345306 C0.991524894,0.350023497 0.64441826,0.621222258 0.386692625,0.991385996 C0.12903644,1.36154973 0,1.77116056 0,2.22070463 L0,27.7792954 C0,28.2289783 0.12903644,28.6384503 0.386692625,29.0089612 C0.64441826,29.3790555 0.991524894,29.6501849 1.42766528,29.8217936 C1.70504501,29.940621 1.99596732,30 2.29994606,30 C2.92144612,30 3.46974681,29.7817909 3.94575099,29.3459283 L12.690088,20.9382806 L21.434425,29.3461367 C21.8971644,29.7684567 22.4457429,29.9799987 23.0800216,29.9799987 C23.4105993,29.9799987 23.7014522,29.9274951 23.9526496,29.8217241 C24.3885122,29.6501154 24.7357577,29.3789861 24.9936223,29.0084057 C25.2512784,28.6383808 25.3800371,28.2288394 25.3800371,27.7792259 L25.3800371,2.22098243 C25.3800371,1.77143836 25.2510701,1.36182753 24.9936917,0.991663792 Z M22.8421584,27.1642541 L14.4548592,19.1140609 L12.690088,17.4289478 L10.9254556,19.1140609 L2.53822595,27.1642541 L2.53822595,2.53829539 L22.8421584,2.53829539 L22.8421584,27.1642541 L22.8421584,27.1642541 Z" id="Shape" fill="#cba348"></path>
        </g>
    </g>
</svg>
