<?xml version="1.0" encoding="UTF-8"?>
<svg width="30px" height="30px" viewBox="0 0 30 30" version="1.1" xmlns="http://www.w3.org/2000/svg" xmlns:xlink="http://www.w3.org/1999/xlink">
    <title>SL/icons/icon/share</title>
    <g id="SL/icons/icon/share" stroke="none" stroke-width="1" fill="none" fill-rule="evenodd">
        <g id="curve-arrow" transform="translate(2.000000, 0.000000)" fill="#000000" fill-rule="nonzero">
            <path d="M25.3910726,8.75641639 L17.0198633,0.37372255 C16.5223966,-0.124974578 15.7170749,-0.123744095 15.2196668,0.372433473 C14.7222002,0.868611042 14.7222002,1.67393278 15.2183777,2.17262991 L21.4344842,8.39635367 L8.68931846,8.39635367 C3.91340428,8.39635367 0.0165822215,12.2817498 0,17.0614726 L0,28.7277979 C0,29.4313411 0.568658869,30 1.2722021,30 C1.97574533,30 2.5444042,29.4313411 2.5444042,28.7277979 L2.5444042,17.0653399 C2.55583011,13.6876058 5.31275627,10.9408751 8.68925986,10.9408751 L21.4089957,10.9408751 L15.2170887,17.1403993 C14.7209111,17.6390964 14.7209111,18.4431877 15.2183777,18.9405958 C15.4664665,19.1873955 15.7921343,19.3120844 16.1178607,19.3120844 C16.4435285,19.3120844 16.7704854,19.1873955 17.0185742,18.9393067 L25.3898421,10.5553238 C25.8872502,10.0579157 25.8872502,9.25259396 25.3910726,8.75641639 Z" id="Path"></path>
        </g>
    </g>
</svg>