<?xml version="1.0" encoding="UTF-8"?>
<svg width="143px" height="60px" viewBox="0 0 143 60" version="1.1" xmlns="http://www.w3.org/2000/svg" xmlns:xlink="http://www.w3.org/1999/xlink">
    <title>Articles</title>
    <g id="Symbols" stroke="none" stroke-width="1" fill="none" fill-rule="evenodd">
        <g id="publish/desktop/post-s14-(empty)" transform="translate(-260.000000, -727.000000)" fill="#CBA348" fill-rule="nonzero">
            <g id="Group-7" transform="translate(41.000000, 647.000000)">
                <g id="Group-27" transform="translate(0.000000, 36.000000)">
                    <g id="Group-12" transform="translate(147.000000, 44.000000)">
                        <g id="Articles" transform="translate(72.000000, 0.000000)">
                            <g id="9040508_filetype_pdf_icon" transform="translate(51.200000, 6.000000)">
                                <path d="M41.6,13.5 L41.6,42 C41.6,45.3137085 38.9392922,48 35.6571429,48 L32.6857143,48 L32.6857143,45 L35.6571429,45 C37.2982175,45 38.6285714,43.6568542 38.6285714,42 L38.6285714,13.5 L32.6857143,13.5 C30.2241023,13.5 28.2285714,11.4852814 28.2285714,9 L28.2285714,3 L11.8857143,3 C10.2446396,3 8.91428571,4.34314575 8.91428571,6 L8.91428571,33 L5.94285714,33 L5.94285714,6 C5.94285714,2.6862915 8.60356492,0 11.8857143,0 L28.2285714,0 L41.6,13.5 Z M4.75428571,35.55 L0,35.55 L0,47.547 L2.3504,47.547 L2.3504,43.521 L4.73645714,43.521 C5.58925714,43.521 6.31428571,43.35 6.91154286,43.002 C7.51474286,42.651 7.97531429,42.177 8.28731429,41.58 C8.61116023,40.9535388 8.77556333,40.2555816 8.76571429,39.549 C8.76571429,38.799 8.60822857,38.121 8.29622857,37.518 C7.98589439,36.9185787 7.51143609,36.4218554 6.92937143,36.087 C6.33508571,35.727 5.61302857,35.55 4.75428571,35.55 L4.75428571,35.55 Z M6.37371429,39.549 C6.38442623,39.9442631 6.29763238,40.3360136 6.12114286,40.689 C5.96280774,40.9963328 5.71634151,41.2483054 5.41394286,41.412 C5.06803285,41.5847773 4.68542362,41.6692457 4.29965714,41.658 L2.34148571,41.658 L2.34148571,37.44 L4.30262857,37.44 C4.9504,37.44 5.45851429,37.62 5.824,37.983 C6.18948571,38.349 6.37371429,38.871 6.37371429,39.549 Z M9.98994286,35.55 L9.98994286,47.547 L14.3282286,47.547 C15.5197714,47.547 16.5092571,47.307 17.2937143,46.836 C18.0875491,46.3564886 18.7074451,45.6317572 19.0617143,44.769 C19.448,43.869 19.6441143,42.783 19.6441143,41.517 C19.6441143,40.257 19.4509714,39.183 19.0617143,38.292 C18.7116246,37.4391542 18.09767,36.7235288 17.3115429,36.252 C16.5270857,35.784 15.5316571,35.55 14.3252571,35.55 L9.98994286,35.55 Z M12.3403429,37.485 L14.0132571,37.485 C14.7501714,37.485 15.3504,37.635 15.8228571,37.941 C16.313257,38.2648073 16.6832512,38.7438823 16.8747429,39.303 C17.1094857,39.906 17.2253714,40.659 17.2253714,41.562 C17.2345838,42.1603415 17.1666615,42.7573508 17.0233143,43.338 C16.9174529,43.7959367 16.7191905,44.2269122 16.4409143,44.604 C16.1823793,44.9404258 15.8398449,45.2013499 15.4484571,45.36 C14.9898606,45.5332336 14.5027865,45.6167204 14.0132571,45.606 L12.3403429,45.606 L12.3403429,37.485 L12.3403429,37.485 Z M23.4624,42.774 L23.4624,47.547 L21.1149714,47.547 L21.1149714,35.55 L28.6861714,35.55 L28.6861714,37.509 L23.4624,37.509 L23.4624,40.86 L28.2345143,40.86 L28.2345143,42.774 L23.4624,42.774 L23.4624,42.774 Z" id="Shape"></path>
                            </g>
                        </g>
                    </g>
                </g>
            </g>
        </g>
    </g>
</svg>