<?xml version="1.0" encoding="UTF-8"?>
<svg width="144px" height="55px" viewBox="0 0 144 55" version="1.1" xmlns="http://www.w3.org/2000/svg" xmlns:xlink="http://www.w3.org/1999/xlink">
    <title>Group 5</title>
    <g id="Symbols" stroke="none" stroke-width="1" fill="none" fill-rule="evenodd">
        <g id="publish/desktop/post-s14-(empty)" transform="translate(-260.000000, -727.000000)">
            <g id="Group-7" transform="translate(41.000000, 647.000000)">
                <g id="Group-27" transform="translate(0.000000, 36.000000)">
                    <g id="Group-12" transform="translate(147.000000, 44.000000)">
                        <g id="Group-5" transform="translate(72.449490, 0.000000)">
                            <g id="SL/icons/icon/casestudy" transform="translate(121.820968, 34.000000) rotate(15.000000) translate(-121.820968, -34.000000) translate(104.820968, 17.000000)" fill="#CBA348" fill-rule="nonzero">
                                <g id="3209301_keynote_lesson_presentation_report_statistics_icon">
                                    <path d="M17.7083333,1.41666667 L17.7083333,0 L16.2916667,0 L16.2916667,1.41666667 L1.41666667,1.41666667 L0,1.41666667 L0,2.83333333 L1.41666667,2.83333333 L1.41666667,21.25 L0,21.25 L0,22.6666667 L1.41666667,22.6666667 L13.7919583,22.6666667 L9.20833333,33.143625 L9.20833333,34 L10.625,34 L10.625,33.4397083 L15.33825,22.6666667 L16.2916667,22.6666667 L16.2916667,34 L17.7083333,34 L17.7083333,22.6666667 L18.66175,22.6666667 L23.375,33.4397083 L23.375,34 L24.7916667,34 L24.7916667,33.143625 L20.2080417,22.6666667 L32.5833333,22.6666667 L34,22.6666667 L34,21.25 L32.5833333,21.25 L32.5833333,2.83333333 L34,2.83333333 L34,1.41666667 L32.5833333,1.41666667 L17.7083333,1.41666667 Z M31.1666667,21.25 L2.83333333,21.25 L2.83333333,2.83333333 L31.1666667,2.83333333 L31.1666667,21.25 Z" id="Shape"></path>
                                    <path d="M10.625,19.125 C13.7494583,19.125 16.2916667,16.5827917 16.2916667,13.4583333 L16.2916667,12.75 L11.3333333,12.75 L11.3333333,7.79166667 L10.625,7.79166667 C7.50054167,7.79166667 4.95833333,10.333875 4.95833333,13.4583333 C4.95833333,16.5827917 7.50054167,19.125 10.625,19.125 Z M9.91666667,9.267125 L9.91666667,14.1666667 L14.8162083,14.1666667 C14.477625,16.1740833 12.7273333,17.7083333 10.625,17.7083333 C8.281125,17.7083333 6.375,15.8022083 6.375,13.4583333 C6.375,11.356 7.90925,9.60570833 9.91666667,9.267125 Z" id="Shape"></path>
                                    <path d="M19.125,10.625 C19.125,7.50054167 16.5827917,4.95833333 13.4583333,4.95833333 L12.75,4.95833333 L12.75,11.3333333 L19.125,11.3333333 L19.125,10.625 Z M14.1666667,9.91666667 L14.1666667,6.43379167 C15.943875,6.73270833 17.3499167,8.13945833 17.6495417,9.91666667 L14.1666667,9.91666667 Z" id="Shape"></path>
                                    <rect id="Rectangle" x="21.25" y="6.375" width="7.08333333" height="1.41666667"></rect>
                                    <rect id="Rectangle" x="21.25" y="9.91666667" width="7.08333333" height="1.41666667"></rect>
                                    <rect id="Rectangle" x="21.25" y="13.4583333" width="7.08333333" height="1.41666667"></rect>
                                </g>
                            </g>
                            <g id="SL/icons/icon/casestudy" transform="translate(20.820663, 31.000000) rotate(-15.000000) translate(-20.820663, -31.000000) translate(4.953996, 20.800000)" stroke="#CBA348" stroke-linecap="round" stroke-linejoin="round" stroke-width="2">
                                <g id="2561498_video_icon" transform="translate(0.000000, -0.000000)">
                                    <polygon id="Path" points="31.7333333 3.4 21.5333333 10.7666667 31.7333333 18.1333333"></polygon>
                                    <rect id="Rectangle" x="1.32318178e-15" y="1.37967973e-15" width="21.5333333" height="20.4" rx="2"></rect>
                                </g>
                            </g>
                            <g id="SL/icons/icon/casestudy" transform="translate(52.820815, 5.066667)" fill="#CBA348" fill-rule="nonzero">
                                <g id="1814111_image_photograph_picture_icon" transform="translate(0.000000, -0.000000)">
                                    <path d="M34.6680585,29.0354906 L3.33194154,29.0354906 C1.50730689,29.0354906 0,27.5281837 0,25.7035491 L0,3.33194154 C0,1.50730689 1.50730689,0 3.33194154,0 L34.6680585,0 C36.4926931,0 38,1.50730689 38,3.33194154 L38,25.7035491 C38,27.5281837 36.4926931,29.0354906 34.6680585,29.0354906 L34.6680585,29.0354906 Z M3.2526096,2.14196242 C2.61795407,2.14196242 2.14196242,2.61795407 2.14196242,3.2526096 L2.14196242,25.6242171 C2.14196242,26.2588727 2.61795407,26.7348643 3.2526096,26.7348643 L34.5887265,26.7348643 C35.223382,26.7348643 35.6993737,26.2588727 35.6993737,25.6242171 L35.6993737,3.2526096 C35.6993737,2.61795407 35.223382,2.14196242 34.5887265,2.14196242 L3.2526096,2.14196242 L3.2526096,2.14196242 Z" id="Fill-12"></path>
                                    <path d="M24.5929019,13.2484342 C22.1336117,13.2484342 20.2296451,11.2651357 20.2296451,8.88517745 C20.2296451,6.50521921 22.2129436,4.52192067 24.5929019,4.52192067 C26.9728601,4.52192067 28.9561587,6.50521921 28.9561587,8.88517745 C28.9561587,11.2651357 26.9728601,13.2484342 24.5929019,13.2484342 L24.5929019,13.2484342 Z M24.5929019,6.50521921 C23.3235908,6.50521921 22.2922756,7.53653445 22.2922756,8.80584551 C22.2922756,10.0751566 23.3235908,11.1064718 24.5929019,11.1064718 C25.8622129,11.1064718 26.8935282,10.0751566 26.8935282,8.80584551 C26.8935282,7.53653445 25.8622129,6.50521921 24.5929019,6.50521921 L24.5929019,6.50521921 Z" id="Fill-13"></path>
                                    <polyline id="Fill-14" points="30.5427975 28.6388309 12.217119 11.4237996 1.74530271 21.1022965 0.317327766 19.5949896 12.217119 8.56784969 31.9707724 27.131524 30.5427975 28.6388309"></polyline>
                                    <polyline id="Fill-15" points="36.2546973 22.9269311 30.1461378 18.0083507 25.0688935 22.2129436 23.7202505 20.5469729 30.1461378 15.3110647 37.5240084 21.3402923 36.2546973 22.9269311"></polyline>
                                </g>
                            </g>
                        </g>
                    </g>
                </g>
            </g>
        </g>
    </g>
</svg>