<?xml version="1.0" encoding="UTF-8"?>
<svg width="143px" height="60px" viewBox="0 0 143 60" version="1.1" xmlns="http://www.w3.org/2000/svg" xmlns:xlink="http://www.w3.org/1999/xlink">
    <title>Podcasts</title>
    <g id="Symbols" stroke="none" stroke-width="1" fill="none" fill-rule="evenodd">
        <g id="publish/desktop/post-s14-(empty)" transform="translate(-260.000000, -727.000000)" fill="#CBA348" fill-rule="nonzero">
            <g id="Group-7" transform="translate(41.000000, 647.000000)">
                <g id="Group-27" transform="translate(0.000000, 36.000000)">
                    <g id="Group-12" transform="translate(147.000000, 44.000000)">
                        <g id="Podcasts" transform="translate(72.000000, 0.000000)">
                            <g id="Group-5" transform="translate(21.000000, 7.000000)">
                                <g id="SL/icons/icon/casestudy" transform="translate(79.159790, 24.952968) rotate(15.000000) translate(-79.159790, -24.952968) translate(61.659790, 11.581361)">
                                    <g id="1814111_image_photograph_picture_icon" transform="translate(0.000000, 0.000000)">
                                        <path d="M31.9311065,26.743215 L3.06889353,26.743215 C1.38830898,26.743215 0,25.3549061 0,23.6743215 L0,3.06889353 C0,1.38830898 1.38830898,0 3.06889353,0 L31.9311065,0 C33.611691,0 35,1.38830898 35,3.06889353 L35,23.6743215 C35,25.3549061 33.611691,26.743215 31.9311065,26.743215 L31.9311065,26.743215 Z M2.99582463,1.97286013 C2.41127349,1.97286013 1.97286013,2.41127349 1.97286013,2.99582463 L1.97286013,23.6012526 C1.97286013,24.1858038 2.41127349,24.6242171 2.99582463,24.6242171 L31.8580376,24.6242171 C32.4425887,24.6242171 32.8810021,24.1858038 32.8810021,23.6012526 L32.8810021,2.99582463 C32.8810021,2.41127349 32.4425887,1.97286013 31.8580376,1.97286013 L2.99582463,1.97286013 L2.99582463,1.97286013 Z" id="Fill-12"></path>
                                        <path d="M22.651357,12.2025052 C20.3862213,12.2025052 18.6325678,10.3757829 18.6325678,8.18371608 C18.6325678,5.99164927 20.4592902,4.16492693 22.651357,4.16492693 C24.8434238,4.16492693 26.6701461,5.99164927 26.6701461,8.18371608 C26.6701461,10.3757829 24.8434238,12.2025052 22.651357,12.2025052 L22.651357,12.2025052 Z M22.651357,5.99164927 C21.4822547,5.99164927 20.5323591,6.94154489 20.5323591,8.11064718 C20.5323591,9.27974948 21.4822547,10.2296451 22.651357,10.2296451 C23.8204593,10.2296451 24.7703549,9.27974948 24.7703549,8.11064718 C24.7703549,6.94154489 23.8204593,5.99164927 22.651357,5.99164927 L22.651357,5.99164927 Z" id="Fill-13"></path>
                                        <polyline id="Fill-14" points="28.131524 26.3778706 11.2526096 10.5219207 1.60751566 19.4363257 0.292275574 18.0480167 11.2526096 7.8914405 29.4467641 24.9895616 28.131524 26.3778706"></polyline>
                                        <polyline id="Fill-15" points="33.3924843 21.1169102 27.7661795 16.5866388 23.0897704 20.4592902 21.8475992 18.9248434 27.7661795 14.1022965 34.5615866 19.6555324 33.3924843 21.1169102"></polyline>
                                    </g>
                                </g>
                                <g id="SL/icons/icon/casestudy" transform="translate(21.484503, 21.625116) rotate(-15.000000) translate(-21.484503, -21.625116) translate(3.984503, 4.323973)">
                                    <g id="2849814_note_audio_sound_music_multimedia_icon" transform="translate(-0.000000, 0.000000)">
                                        <path d="M7.21793666,34.6022862 C4.29883181,34.6026365 1.66698231,32.8444336 0.549727411,30.1475994 C-0.567527488,27.4507652 0.0498613395,24.3464552 2.11398019,22.2823363 C4.17809903,20.2182175 7.28240903,19.6008286 9.97924323,20.7180835 C12.6760774,21.8353384 14.4342804,24.4671879 14.4339301,27.3862928 C14.4291574,31.3695973 11.2012412,34.5975135 7.21793666,34.6022862 Z M7.21793666,22.7679183 C5.3498998,22.7675681 3.6656071,23.8925767 2.95049758,25.6183172 C2.23538805,27.3440576 2.63030273,29.3306449 3.9510804,30.6516703 C5.27185807,31.9726957 7.25837117,32.367983 8.98424574,31.6531972 C10.7101203,30.9384113 11.8354449,29.2543297 11.8354449,27.3862928 C11.8325818,24.83716 9.76706887,22.7712596 7.21793666,22.7679183 L7.21793666,22.7679183 Z" id="Shape"></path>
                                        <path d="M27.7832148,29.8383967 C24.8641888,29.838747 22.232394,28.0806378 21.1150884,25.3839099 C19.9977827,22.687182 20.6150128,19.58294 22.678952,17.518753 C24.7428913,15.454566 27.8470592,14.8369634 30.5439211,15.9539454 C33.2407831,17.0709273 34.9992082,19.702511 34.9992082,22.6215371 C34.9949127,26.6051799 31.766857,29.833623 27.7832148,29.8383967 L27.7832148,29.8383967 Z M27.7832148,18.0040288 C25.9150991,18.0036785 24.2307516,19.1287809 23.5156929,20.8546277 C22.8006341,22.5804745 23.1957076,24.5671297 24.5166649,25.888087 C25.8376221,27.2090443 27.8242773,27.6041177 29.5501241,26.889059 C31.275971,26.1740002 32.4010733,24.4896527 32.4007231,22.6215371 C32.397859,20.072545 30.3322069,18.0068929 27.7832148,18.0040288 Z" id="Shape"></path>
                                        <path d="M13.1346875,28.6855354 C12.4171356,28.6855354 11.8354449,28.1038447 11.8354449,27.3862928 L11.8354449,5.95831756 C11.8354449,5.35123461 12.25587,4.82508591 12.8479879,4.69112294 L33.4132661,0.0320389576 C33.7984849,-0.0551143813 34.2024317,0.037688458 34.5109875,0.284229705 C34.8195432,0.530770952 34.9992082,0.904278872 34.9992082,1.29923358 L34.9992082,22.6215371 C34.9992082,23.3390889 34.4175175,23.9207797 33.6999656,23.9207797 C32.9824137,23.9207797 32.400723,23.3390889 32.400723,22.6215371 L32.400723,2.92588532 L14.4339301,6.99684549 L14.4339301,27.3862928 C14.4339301,28.1038447 13.8522394,28.6855354 13.1346875,28.6855354 L13.1346875,28.6855354 Z" id="Path"></path>
                                        <path d="M13.1338213,13.1751805 C12.4707929,13.1766628 11.9130117,12.6786606 11.8396459,12.019702 C11.7662801,11.3607435 12.2008689,10.7522547 12.8479879,10.6078738 L33.4132661,5.94878979 C34.1131183,5.79021085 34.8090143,6.22899956 34.9675933,6.9288518 C35.1261722,7.62870405 34.6873836,8.32460004 33.9875313,8.48317903 L13.4222532,13.142263 C13.3276746,13.1641724 13.2309044,13.1751805 13.1338213,13.1751805 Z" id="Path"></path>
                                    </g>
                                </g>
                            </g>
                        </g>
                    </g>
                </g>
            </g>
        </g>
    </g>
</svg>