<?xml version="1.0" encoding="UTF-8"?>
<svg width="164px" height="33px" viewBox="0 0 164 33" version="1.1" xmlns="http://www.w3.org/2000/svg" xmlns:xlink="http://www.w3.org/1999/xlink">
    <title>Group</title>
    <g id="Sprint-5" stroke="none" stroke-width="1" fill="none" fill-rule="evenodd">
        <g id="beemed/mobile/feed/case-discussion(disconnected)" transform="translate(-9.000000, -14.000000)" fill="#CBA349" fill-rule="nonzero">
            <g id="logo-beemed" transform="translate(9.000000, 14.000000)">
                <g id="layer101_4_" transform="translate(42.000000, 4.000000)">
                    <path d="M28.56137,22.9234811 C24.8346403,22.2630579 22.3674311,19.5756439 22.0253391,15.7959916 C21.8698427,14.0941321 22.4399961,11.9807781 23.4610889,10.4770455 C25.4203433,7.58134414 29.3595848,6.29097898 32.8375204,7.38829738 C35.9940968,8.37385187 38,11.0409452 38,14.2262167 L38,15.1355685 L31.1115106,15.1355685 L24.2333876,15.1355685 L24.2333876,15.6385061 C24.2333876,17.5334124 25.6121221,19.6721673 27.3433151,20.464675 C28.4836219,20.9930135 29.1781723,21.1047774 30.7486857,21.0336549 C32.754589,20.9472919 34.0503921,20.4748354 35.5535237,19.2606729 L36.1858756,18.7628154 L36.8752429,19.4384791 C37.683824,20.2259066 37.683824,20.1903454 36.5072348,21.0184144 C35.512058,21.7194789 33.9778271,22.4053029 32.7649554,22.6948731 C31.6401983,22.9692027 29.4684322,23.0911269 28.56137,22.9234811 Z M35.6260887,13.1187379 C35.6260887,12.60564 35.2477142,11.5845242 34.8330572,10.9698227 C33.8015979,9.45592974 31.4173201,8.52625721 29.3284855,8.8259877 C27.4314297,9.11047765 25.8505499,10.2484375 24.9642206,11.9909385 C24.1660058,13.5403927 23.6010357,13.3829072 30.0541352,13.3829072 L35.6312719,13.3829072 L35.6312719,13.1187379 L35.6260887,13.1187379 Z" id="Shape"></path>
                    <path d="M47.4755035,22.8860304 C45.7532089,22.6061676 44.2695455,21.8429054 43.1178907,20.6623932 C42.2048671,19.7057713 41.7535429,18.9475975 41.3229693,17.7162012 C41.0480247,16.9020548 41.0117112,16.5814847 41.001336,15.2127012 C40.9909607,13.8693597 41.0376494,13.5131707 41.2607177,12.7651738 C42.0907391,10.1548171 43.9427246,8.24157317 46.5002283,7.36127744 C47.4391901,7.04070732 47.6415078,7.01526524 49.1251712,7 C50.3442652,7 50.8941545,7.05088415 51.4388561,7.21371341 C54.8004431,8.22630792 56.7354307,10.5924207 56.9273731,13.971128 L57,15.1007561 L50.0381948,15.1007561 L43.0919526,15.1007561 L43.1490165,15.6045091 C43.340959,17.3294817 43.8337843,18.4387561 44.8349977,19.4157317 C46.0333412,20.5809786 47.3094992,21.0440243 49.2548621,21.0440243 C51.2106002,21.0440243 52.9951464,20.438503 54.4580592,19.2834329 L55.1428269,18.7237073 L55.822407,19.4004664 C56.1907291,19.7617439 56.4864242,20.0924908 56.4864242,20.1230213 C56.4864242,20.2756737 55.028699,21.3035335 54.219428,21.7309603 C52.2014383,22.7740853 49.5764954,23.2320426 47.4755035,22.8860304 Z M54.5410614,12.8007927 C54.3387436,11.4370975 53.1507754,9.9258384 51.7968028,9.31522865 C49.4104911,8.24157317 46.7855481,8.65373475 45.0269401,10.3736189 C44.3369848,11.050378 43.6729676,12.1342103 43.4343364,12.9788872 L43.3150208,13.345253 L48.9695422,13.345253 L54.6136882,13.345253 L54.5410614,12.8007927 Z" id="Shape"></path>
                    <path d="M93.3762383,22.8620292 C91.6189438,22.5106139 90.3592901,21.879085 89.2084954,20.7382587 C87.7259401,19.271482 86.9898462,17.3921743 87.0001058,15.0952426 C87.0105813,11.4232078 89.1670254,8.44891055 92.6608795,7.31827015 C93.4799135,7.04834249 93.8168579,7.00250571 95.1490842,7.00250571 C96.4553917,6.98722679 96.8338061,7.03815654 97.5854513,7.25715445 C100.752729,8.23500561 102.520391,10.3027534 102.924724,13.4909556 C102.997297,14.0460898 103.023215,14.6470609 102.976561,14.8100361 L102.903989,15.1003356 L96.0303234,15.1003356 L89.1566578,15.1003356 L89.1566578,15.5077736 C89.1566578,16.1953252 89.4106621,17.1018747 89.8253629,17.9676804 C90.5148029,19.3988063 91.8211104,20.4479591 93.4436272,20.870676 C94.2833963,21.0947669 96.253225,21.0947669 97.2277719,20.8553971 C98.2697076,20.6211203 99.7626304,19.8928249 100.493541,19.261296 L101.084489,18.7367196 L101.820583,19.4242712 L102.561861,20.1016368 L102.002015,20.5803765 C99.9181432,22.3934755 96.1184473,23.3815126 93.3762383,22.8620292 Z M100.519459,12.7473813 C100.28619,10.7509352 98.4096691,9.12118322 95.9888533,8.78504689 C94.0397596,8.51511922 92.2565462,9.11099727 90.96579,10.4861005 C90.2867175,11.188931 89.6231962,12.3144784 89.4417646,13.0274949 L89.3743758,13.3432593 L94.9728364,13.3432593 L100.586848,13.3432593 L100.519459,12.7473813 Z" id="Shape"></path>
                    <path d="M112.327154,22.8534216 C108.492358,22.1237402 106,19.0759555 106,15.119792 C106,12.7669419 106.702439,11.0941349 108.32065,9.55038731 C109.382114,8.55265974 110.204228,8.07613313 111.609106,7.64924472 C112.353171,7.43580051 112.753821,7.38616233 113.929756,7.40105378 C115.157724,7.40105378 115.480325,7.44572815 116.229593,7.69888291 C117.249431,8.05131404 118.206829,8.57747883 118.945691,9.18802854 L119.47122,9.62980841 L119.497236,4.80994039 L119.528455,0 L120.605528,0 L121.672195,0 L121.745041,10.9700395 C121.786667,17.0060431 121.854309,22.0741021 121.901138,22.2577634 L122,22.5655201 L120.985366,22.5655201 C119.819837,22.5655201 119.892683,22.6350136 119.762602,21.2451443 L119.689756,20.460861 L119.02374,21.061483 C118.60748,21.4337694 117.93626,21.8606579 117.270244,22.1783423 C115.579187,22.9725533 114.065041,23.1760698 112.327154,22.8534216 Z M115.938211,20.8927132 C116.885203,20.6296308 118.045528,20.0041896 118.81561,19.3688208 L119.481626,18.788054 L119.481626,15.174394 L119.481626,11.5557701 L118.888455,11.0544244 C114.346016,7.25710304 108.409106,9.56527876 108.398699,15.119792 C108.398699,18.7433797 111.057561,21.364276 114.51252,21.1260127 C114.949593,21.0962298 115.589593,20.9969534 115.938211,20.8927132 Z" id="Shape"></path>
                    <path d="M0.0393750446,22.8767807 C0.0037418183,22.7971743 -0.0064391035,18.0705438 0.0037418183,12.3637594 L0.0393750446,2 L6.97258279,2 L13.9057905,2 L14.7813498,2.26369623 C15.9216131,2.61694967 16.5426493,2.97020311 17.4131181,3.7911442 C19.0013419,5.27381357 19.3729455,7.28885079 18.4159389,9.28398641 C18.0188829,10.1148783 17.1229618,11.0452782 16.3644832,11.4283841 L15.8096229,11.7020311 L16.3237595,11.8463177 C18.792633,12.5578 20.4012186,15.2693933 19.9125344,17.9013802 C19.5154785,20.085581 17.8610787,21.8966268 15.5652808,22.6479123 L14.6082741,22.9563871 L7.34418644,22.9912149 C1.48506594,23.0160919 0.0851891927,22.9912149 0.0393750446,22.8767807 Z M14.9238827,20.6428259 C15.8096229,20.2895724 16.7411773,19.4487297 17.1738664,18.6078871 C17.489475,18.0257652 17.5251082,17.8317246 17.5251082,16.9162509 C17.5251082,16.0157034 17.4792941,15.8216627 17.1993187,15.2892949 C16.5681016,14.1200758 15.4991048,13.3488887 14.1450422,13.1100694 C13.7174435,13.030463 11.4063742,12.9856844 7.88886575,12.9856844 L2.31481107,12.9856844 L2.31481107,16.9759557 L2.31481107,20.9761777 L8.29101216,20.9413499 C14.2213991,20.9065221 14.2570323,20.9065221 14.9238827,20.6428259 Z M14.4555603,10.7915328 C15.2089485,10.4283285 15.865618,9.76660027 16.2270407,9.01531478 C16.4153878,8.61728274 16.4713828,8.2690047 16.4713828,7.52269462 C16.4713828,6.65697492 16.4408401,6.4878113 16.1252315,5.94051724 C15.6721805,5.14445315 14.8678876,4.51755268 13.8905192,4.21902865 C13.1778546,4.00508642 12.8164319,3.99016022 7.725971,3.99016022 L2.31481107,3.99016022 L2.31481107,7.58239942 L2.31481107,11.1845894 L8.05685096,11.1497616 L13.7887099,11.1099584 L14.4555603,10.7915328 Z" id="Shape"></path>
                    <path d="M62,12.4950448 L62,2 L63.2162541,2 L64.4177954,2 L68.463802,8.8529967 C70.6854274,12.6238792 72.539234,15.6861727 72.5735638,15.6613969 C72.617702,15.6415762 74.4469874,12.5545068 76.6588043,8.80840019 L80.6655768,2 L81.8327884,2 L83,2 L83,12.4950448 L83,23 L81.9112564,22.9653138 L80.8078001,22.9306277 L80.7489491,14.4424257 L80.6900981,5.95917886 L76.7274638,12.6536102 C73.0198505,18.916942 72.7403083,19.3579519 72.4509575,19.3579519 C72.166511,19.3579519 71.8869687,18.916942 68.1597384,12.6337895 L64.1823914,5.90962718 L64.1480617,14.452336 L64.1284447,23 L63.0691266,23 L62,23 L62,12.4950448 Z" id="Path"></path>
                </g>
                <g id="layer102_4_">
                    <path d="M0.0648746058,32.9376821 C0.0243279772,32.9098866 0,25.4805432 0,16.4390601 L0,0 L10.6110527,0.0158831499 L21.2139961,0.0436786622 L23.8779096,4.59420111 C25.3416429,7.09182643 26.6431897,9.3194382 26.7729389,9.54974387 L27,9.95873498 L24.5834209,13.957318 C23.2534915,16.1571342 22.1506232,18.0035504 22.1344046,18.0511999 C22.1141313,18.1067909 22.2722631,18.1941482 22.4871602,18.2576808 C24.0482054,18.7421169 25.4024628,19.9293823 26.1931221,21.5137265 C27.6365821,24.4401969 27.1135306,28.025818 24.8550833,30.4122613 C23.4075687,31.9608684 21.7978675,32.6954641 19.4137258,32.9138574 C18.3149121,33.0091563 0.166241177,33.0369518 0.0648746058,32.9376821 Z M19.6407869,30.2256342 C21.4207839,29.9278252 22.8074786,28.9470407 23.5616459,27.4341707 C23.7684337,27.017238 23.9833308,26.4613277 24.0360414,26.1992557 C24.1820093,25.5162803 24.161736,24.2178328 23.9954948,23.6063315 C23.5697552,22.0061042 22.2682084,20.6401533 20.613906,20.0524767 C20.1232918,19.8698205 19.8475747,19.8618789 14.7224809,19.8142295 L9.33788857,19.76658 L7.99984983,17.4952896 C7.26595585,16.2524331 5.95629974,14.0327629 5.10482054,12.5675424 L3.54377534,9.92696868 L5.63192672,6.43664649 C6.78345097,4.52669772 7.75657006,2.88279171 7.80522601,2.79940517 C7.89037393,2.64454446 7.7403514,2.63263209 5.29133504,2.63263209 L2.68824148,2.63263209 L2.68824148,16.498622 L2.68824148,30.3646118 L10.7570206,30.3646118 C17.5161436,30.3646118 18.9555489,30.3487287 19.6407869,30.2256342 Z M21.6275717,13.7071584 C22.7709866,11.789268 23.7441057,10.1533036 23.800871,10.069917 C23.8779096,9.95079341 23.4562247,9.16854828 21.7573209,6.277815 L19.6326776,2.63263209 L15.3185163,2.64851524 L11.0124643,2.67631076 L8.84727437,6.27384421 C7.65925815,8.24732558 6.70235771,9.91108553 6.71041587,9.96270577 C6.71857636,10.0182968 7.66736747,11.6661736 8.80672774,13.619801 L10.8867698,17.1815974 L15.2130951,17.1815974 L19.5475297,17.1815974 L21.6275717,13.7071584 Z" id="Shape"></path>
                </g>
            </g>
        </g>
    </g>
</svg>