<?xml version="1.0" encoding="UTF-8"?>
<svg width="251px" height="338px" viewBox="0 0 251 338" version="1.1" xmlns="http://www.w3.org/2000/svg" xmlns:xlink="http://www.w3.org/1999/xlink">
    <title>Group 7</title>
    <g id="Web-app-(current-design)" stroke="none" stroke-width="1" fill="none" fill-rule="evenodd">
        <g id="aero/web/liste-mission(empty)" transform="translate(-853.000000, -210.000000)">
            <g id="Group-4" transform="translate(647.000000, 134.000000)">
                <g id="Group-3" transform="translate(77.025000, 76.000000)">
                    <g id="Group-7" transform="translate(132.000000, 0.000000)">
                        <path d="M77.7397,206.0085 C78.1527,195.7155 79.5537,181.9255 83.5167,168.0375" id="Stroke-3" stroke="#EE2424" stroke-dasharray="10.999,10.999,10.999,10.999"></path>
                        <path d="M85.143,162.7795 C92.284,141.4255 105.973,120.8565 131.965,113.5005 C192.166,96.4625 256.799,180.5355 243.774,36.5965" id="Stroke-5" stroke-opacity="0.8" stroke="#EE2424" stroke-dasharray="10.999,10.999,10.999,10.999,10.999,10.999"></path>
                        <path d="M244.5561,14.948 L244.5711,14.948 C244.0301,15.447 243.3131,15.711 242.5771,15.681 C241.6141,15.64 240.6701,15.395 239.8081,14.962 L236.7811,9.515 C237.7391,6.127 239.8991,0.958 241.9111,0.958 C242.4921,1.018 243.0161,1.327 243.3491,1.806 C245.6391,4.46 243.1051,8.034 242.9941,8.192 C242.8391,8.407 242.8881,8.706 243.1031,8.861 C243.1161,8.87 243.1291,8.879 243.1431,8.887 C243.1431,8.887 245.5671,10.324 245.7921,12.241 C245.8931,13.151 245.4811,14.061 244.5561,14.948 M239.5781,16.931 C239.4801,17.283 239.1151,17.489 238.7631,17.39 C238.5921,17.342 238.4471,17.227 238.3621,17.071 L237.8821,16.198 L234.7051,10.449 L233.6851,8.609 C233.5101,8.289 233.6251,7.887 233.9441,7.708 C234.0421,7.654 234.1531,7.626 234.2651,7.62697412 C234.5051,7.626 234.7281,7.757 234.8441,7.967 L239.5261,16.428 C239.6101,16.582 239.6281,16.763 239.5781,16.931 M234.4131,20.563 L234.4131,20.563 C234.0161,20.667 233.6071,20.721 233.1971,20.726 C232.4591,20.758 231.7431,20.473 231.2271,19.945 C229.9671,18.647 230.0301,16.16 230.0301,16.112 C230.0301,15.847 229.8151,15.633 229.5501,15.633 L229.2481,15.633 C228.2231,15.633 224.8121,15.408 223.9251,12.533 C223.6961,11.781 223.7241,11.197 224.0221,10.794 C224.4481,10.214 225.4881,9.912 227.0311,9.912 C229.7231,9.912 233.1241,10.837 233.9491,11.072 L236.9621,16.519 C236.8901,17.185 236.4781,20.041 234.4131,20.563 M246.7411,12.112 C246.5161,10.267 244.8481,8.887 244.0341,8.326 C244.7241,7.157 246.3381,3.813 244.0681,1.178 C243.5611,0.483 242.7701,0.05 241.9111,8.52651283e-14 C239.0661,8.52651283e-14 236.9381,5.782 236.1331,8.341 L235.6551,7.503 C235.5121,7.245 235.3011,7.031 235.0461,6.885 L234.9791,4.297 C234.9791,4.032 234.7641,3.818 234.4991,3.818 C234.2351,3.818 234.0211,4.032 234.0211,4.297 L234.0821,6.659 C233.8621,6.676 233.6471,6.738 233.4511,6.841 C233.2651,6.946 233.1021,7.086 232.9711,7.253 L231.0211,5.96 C230.7931,5.809 230.4871,5.871 230.3361,6.099 C230.1851,6.326 230.2471,6.633 230.4751,6.784 L232.6121,8.221 C232.5951,8.523 232.6621,8.823 232.8081,9.088 L233.2871,9.931 C231.2411,9.372 229.1361,9.05 227.0161,8.973 C225.1331,8.973 223.8641,9.4 223.2411,10.243 C222.7611,10.899 222.6751,11.771 223.0011,12.83 C224.0351,16.184 227.7201,16.577 229.0771,16.606 C229.1191,17.506 229.3591,19.404 230.5131,20.611 C231.2091,21.326 232.1751,21.716 233.1721,21.684 C233.6581,21.678 234.1401,21.614 234.6101,21.492 C236.5271,21.013 237.3451,19.131 237.6661,17.808 C238.2511,18.485 239.2741,18.56 239.9511,17.976 C240.4371,17.556 240.6291,16.889 240.4411,16.275 C241.1121,16.505 241.8151,16.628 242.5251,16.639 C243.5231,16.682 244.4951,16.319 245.2221,15.633 C246.3771,14.526 246.8851,13.343 246.7411,12.112" id="Fill-9" fill="#EE2424"></path>
                        <path d="M18.476,227.9831 L21.806,204.0091 C21.806,204.0091 23.531,200.0601 25.801,200.0601 L75.959,200.0601 C75.959,200.0601 81.587,205.5651 80.294,212.0321 L173.798,212.0321 C173.798,212.0321 180.197,211.8261 180.197,217.6051 C180.197,223.3851 173.798,325.9711 173.798,325.9711 C173.798,325.9711 174.623,330.7181 166.781,334.4341 L13.623,334.4341 C13.623,334.4341 6.606,331.0601 6.193,327.4841 C5.78,323.9071 5.68434189e-14,236.5951 5.68434189e-14,236.5951 C5.68434189e-14,236.5951 1.652,230.1971 7.431,229.1651 C10.321,228.9581 18.476,227.9831 18.476,227.9831 Z" id="Stroke-11" stroke="#353433" stroke-width="6" stroke-linecap="round"></path>
                        <path d="M164.1938,334.4343 C164.1938,334.4343 168.9288,333.1793 169.2878,330.1363 C169.6458,327.0923 163.2008,238.8303 163.2008,238.8303 C163.2008,238.8303 159.4408,229.5213 152.4588,229.3423 C145.4758,229.1643 7.4308,229.1643 7.4308,229.1643" id="Stroke-13" stroke="#353433" stroke-width="6" stroke-linecap="round"></path>
                    </g>
                </g>
            </g>
        </g>
    </g>
</svg>