<?xml version="1.0" encoding="UTF-8"?>
<svg width="1051px" height="569px" viewBox="0 0 1051 569" version="1.1" xmlns="http://www.w3.org/2000/svg" xmlns:xlink="http://www.w3.org/1999/xlink">
  <title>Logo BeeMed</title>
  <defs>
    <filter id="filter-1">
      <feColorMatrix in="SourceGraphic" type="matrix" values="0 0 0 0 1.000000 0 0 0 0 1.000000 0 0 0 0 1.000000 0 0 0 1.000000 0"></feColorMatrix>
    </filter>
  </defs>
  <g id="Symbols" stroke="none" stroke-width="1" fill="none" fill-rule="evenodd">
    <g id="Group-46" transform="translate(-841.000000, -1082.000000)">
      <g id="Logo-BeeMed" transform="translate(841.000000, 1082.000000)">
        <g filter="url(#filter-1)" id="layer101">
          <g transform="translate(0.000000, 391.000000)">
            <path d="M253.707031,177.256882 C223.569798,172.242668 203.606281,151.921904 200.822906,123.332084 C199.575186,110.488657 204.182151,94.4783581 212.436298,83.1303989 C228.272742,61.2261986 260.137587,51.4616755 288.259272,59.7307311 C313.789539,67.2080685 330.009897,87.3528953 330.009897,111.456313 L330.009897,118.317869 L274.342397,118.317869 L218.674897,118.317869 L218.674897,122.100522 C218.674897,136.439417 229.808397,152.625653 243.82125,158.607523 C253.035181,162.566113 258.69791,163.4458 271.367065,162.917988 C287.587423,162.302207 298.049074,158.695492 310.238337,149.546749 L315.325194,145.764096 L320.891944,150.866279 C327.418479,156.848149 327.418479,156.584243 317.916612,162.830019 C309.854423,168.10814 297.473203,173.298292 287.683401,175.497509 C278.565449,177.608757 261.001393,178.488444 253.707031,177.256882 Z M310.814207,103.099288 C310.814207,99.2286666 307.742897,91.4874231 304.383651,86.8250833 C296.033526,75.3891554 276.741858,68.3516613 259.849651,70.6388469 C244.4931,72.7500951 231.727966,81.3710254 224.529582,94.5663268 C218.099026,106.266161 213.492061,105.122568 265.704337,105.122568 L310.814207,105.122568 L310.814207,103.099288 Z" id="Shape" fill="#000000" fill-rule="nonzero"></path>
            <path d="M414.56691,177.168914 C400.650035,175.057665 388.652729,169.251733 379.342819,160.366896 C371.952479,153.153465 368.305298,147.435501 364.850074,138.110821 C362.642569,131.953014 362.354634,129.57786 362.258656,119.197556 C362.162677,109.081158 362.546591,106.354129 364.370181,100.724134 C371.088673,81.0191507 386.061311,66.5922878 406.696677,59.9066684 C414.278974,57.4435455 415.910608,57.2676081 427.907914,57.1796395 C437.793694,57.1796395 442.208703,57.5315142 446.623712,58.7630756 C473.785612,66.4163504 489.430099,84.2739917 490.965755,109.784908 L491.541625,118.317869 L435.298255,118.317869 L379.150862,118.317869 L379.630755,122.100522 C381.16641,135.119886 385.197505,143.476911 393.259694,150.866279 C402.953518,159.663147 413.223212,163.181894 428.963677,163.181894 C444.800121,163.181894 459.196888,158.607523 471.002237,149.898624 L476.568987,145.676128 L482.039759,150.778311 C485.015091,153.50534 487.414552,155.968463 487.414552,156.232369 C487.414552,157.375962 475.609203,165.117205 469.082668,168.372046 C452.766332,176.289227 431.555095,179.720005 414.56691,177.168914 Z M471.674087,100.98804 C470.042453,90.695705 460.444608,79.2597771 449.503065,74.685406 C430.211397,66.5922878 409.00016,69.6711915 394.795349,82.6905555 C389.228599,87.7927387 383.853806,95.9738256 381.934237,102.30757 L380.974453,105.122568 L426.660194,105.122568 L472.249957,105.122568 L471.674087,100.98804 Z" id="Shape" fill="#000000" fill-rule="nonzero"></path>
            <path d="M812.301599,176.905008 C798.096789,174.265947 787.923073,169.515639 778.613164,160.894709 C766.615858,149.810655 760.665194,135.647699 760.76003,118.317869 C760.857151,90.6077364 778.325229,68.175724 806.542892,59.6427624 C813.165405,57.6194828 815.852802,57.2676081 826.698366,57.2676081 C837.255996,57.1796395 840.327306,57.5315142 846.373948,59.202919 C872.000194,66.5922878 886.300983,82.1627435 889.56425,106.178192 C890.140121,110.400688 890.332078,114.887091 889.948164,116.118652 L889.372293,118.317869 L833.800772,118.317869 L778.22925,118.317869 L778.22925,121.396773 C778.22925,126.586925 780.244798,133.448482 783.604043,139.958164 C789.170793,150.778311 799.728423,158.695492 812.87747,161.862364 C819.69194,163.533769 835.624362,163.533769 843.494595,161.774395 C851.940698,160.015022 864.033983,154.472995 869.888668,149.722687 L874.687591,145.764096 L880.638254,150.954248 L886.588918,156.056431 L882.077931,159.663147 C865.185724,173.386261 834.472621,180.863598 812.301599,176.905008 Z M870.080625,100.636165 C868.161056,85.5935218 852.996461,73.2779072 833.416858,70.7268156 C817.676392,68.703536 803.279625,73.1899385 792.817974,83.5702423 C787.347203,88.8483628 781.97241,97.3813244 780.532733,102.747414 L779.956862,105.122568 L825.25869,105.122568 L870.656496,105.122568 L870.080625,100.636165 Z" id="Shape" fill="#000000" fill-rule="nonzero"></path>
            <path d="M973.0655,176.817039 C942.16044,171.187044 922.100944,147.611438 922.100944,116.998339 C922.100944,98.7888232 927.763672,85.8574279 940.816741,73.8936879 C949.358823,66.1524444 955.981336,62.45776 967.306793,59.202919 C973.257457,57.5315142 976.520724,57.1796395 986.022591,57.2676081 C995.908371,57.2676081 998.499789,57.6194828 1004.54643,59.5547937 C1012.80058,62.2818227 1020.47885,66.3283818 1026.42952,71.0786903 L1030.65257,74.5094686 L1030.84453,37.21075 L1031.13246,0 L1039.77052,0 L1048.40858,0 L1048.98445,84.8897724 C1049.27239,131.601139 1049.84826,170.835169 1050.23217,172.242668 L1051,174.617822 L1042.84183,174.617822 C1033.43594,174.617822 1034.01181,175.145634 1032.95605,164.413456 L1032.38018,158.343617 L1027.00539,163.005957 C1023.64614,165.908923 1018.27135,169.163764 1012.89656,171.626887 C999.267616,177.784694 987.078353,179.368131 973.0655,176.817039 Z M1002.14697,161.686427 C1009.72927,159.663147 1019.13516,154.82487 1025.27778,149.898624 L1030.65257,145.412222 L1030.65257,117.438183 L1030.65257,89.4641436 L1025.85365,85.5935218 C989.285858,56.211984 941.488591,74.0696253 941.392612,117.086308 C941.392612,145.148316 962.795806,165.381111 990.629556,163.533769 C994.180759,163.269863 999.363595,162.478145 1002.14697,161.686427 Z" id="Shape" fill="#000000" fill-rule="nonzero"></path>
            <path d="M0.323927263,173.562198 C0.0359919181,172.946417 -0.0599865301,136.439417 0.0359919181,92.3671099 L0.323927263,12.3156147 L57.431104,12.3156147 L114.538281,12.3156147 L121.736664,14.3388942 C131.142552,17.0659232 136.22941,19.7929521 143.427794,26.1266968 C156.480863,37.5626247 159.552173,53.1330804 151.68194,68.5275987 C148.418673,74.949312 141.028332,82.1627435 134.789733,85.0657098 L130.182768,87.176958 L134.405819,88.3205508 C154.75325,93.7746087 167.998276,114.711154 163.967181,135.031918 C160.703914,151.921904 147.074975,165.908923 128.16722,171.714856 L120.296988,174.177979 L60.5024143,174.441885 C12.2252548,174.617822 0.707841056,174.441885 0.323927263,173.562198 Z M122.888406,156.320337 C130.182768,153.593308 137.861044,147.083626 141.412246,140.573944 C144.003664,136.087542 144.2916,134.592074 144.2916,127.55458 C144.2916,120.605055 143.907686,119.109587 141.604203,114.97506 C136.421367,105.914286 127.59135,100.020385 116.45785,98.1730425 C112.906647,97.5572618 93.9029143,97.2053871 64.9174229,97.2053871 L19.0397247,97.2053871 L19.0397247,127.994424 L19.0397247,158.871429 L68.2766686,158.607523 C117.129699,158.343617 117.417634,158.343617 122.888406,156.320337 Z M119.049268,80.2274326 C125.287867,77.4124349 130.66266,72.3102517 133.637992,66.5043191 C135.173647,63.4254155 135.653539,60.6983865 135.653539,54.9804225 C135.653539,48.2948032 135.365604,46.975273 132.774186,42.7527766 C129.031026,36.5949692 122.408513,31.7566921 114.346324,29.4695065 C108.491638,27.7981016 105.516307,27.710133 63.5737246,27.710133 L19.0397247,27.710133 L19.0397247,55.4202659 L19.0397247,83.2183676 L66.3570996,82.9544615 L113.578496,82.6905555 L119.049268,80.2274326 Z" id="Shape" fill="#000000" fill-rule="nonzero"></path>
            <path d="M535.403776,93.2467966 L535.403776,11.8757713 L545.769449,11.8757713 L556.039142,11.8757713 L590.591384,65.0088516 C609.595117,94.2144521 625.431561,117.965995 625.719496,117.790057 C626.10341,117.61412 641.747897,93.68664 660.655651,64.6569769 L694.919957,11.8757713 L704.901716,11.8757713 L714.883474,11.8757713 L714.883474,93.2467966 L714.883474,174.705791 L705.573565,174.441885 L696.167677,174.177979 L695.687785,108.377409 L695.207892,42.5768392 L661.3275,94.4783581 C629.654612,143.037067 627.255151,146.467846 624.759711,146.467846 C622.36025,146.467846 619.960789,143.037067 588.095944,94.3024208 L554.119574,42.1369958 L553.831638,108.377409 L553.639681,174.617822 L544.521729,174.617822 L535.403776,174.617822 L535.403776,93.2467966 Z" id="Path" fill="#000000" fill-rule="nonzero"></path>
          </g>
        </g>
        <g id="layer102" transform="translate(393.000000, 0.000000)" fill="#CBA348">
          <path d="M0.654731016,320.38968 C0.280599007,320.124384 0,247.875317 0,159.885328 L0,0 L106.908222,0.1768643 L213.72291,0.442160751 L240.566882,44.6582359 C255.345096,68.9770772 268.439717,90.642954 269.749179,92.8537578 L271.993971,96.8332045 L247.67539,135.743351 C234.300171,157.143931 223.169744,175.095657 222.982678,175.537818 C222.795612,176.068411 224.385673,176.952733 226.536932,177.571758 C242.250476,182.258662 255.906294,193.843273 263.8566,209.230467 C278.447748,237.70562 273.116367,272.547887 250.387847,295.805543 C235.796699,310.839008 219.615489,318.002012 195.577508,320.124384 C184.540614,321.097138 1.68359404,321.362434 0.654731016,320.38968 Z M197.915833,294.0369 C215.874169,291.118639 229.810587,281.567966 237.38676,266.888229 C239.444486,262.820351 241.595745,257.425989 242.156943,254.861457 C243.653471,248.229046 243.466405,235.583248 241.782811,229.658294 C237.480293,214.094236 224.385673,200.829413 207.736798,195.081323 C202.779549,193.31268 199.973559,193.224248 148.343342,192.782088 L94.0942003,192.339927 L80.625448,170.231889 C73.2363408,158.116685 60.0481875,136.53924 51.4431513,122.301664 L35.7296069,96.5679081 L56.7745324,62.6099624 C68.3726247,44.0392108 78.1935899,28.0329916 78.661255,27.2371023 C79.503052,25.7337557 78.0065239,25.6453236 53.3138113,25.6453236 L27.1245707,25.6453236 L27.1245707,160.504353 L27.1245707,295.363382 L108.40475,295.363382 C176.496775,295.363382 190.994391,295.186518 197.915833,294.0369 Z M217.931895,133.355683 C229.436455,114.696499 239.25742,98.7787118 239.818618,97.9828225 C240.566882,96.8332045 236.357897,89.2280396 219.241357,61.1066158 L197.8223,25.6453236 L154.329454,25.8221879 L110.930141,26.0874843 L89.1369512,61.0181837 C77.1647269,80.2079603 67.5308277,96.3910438 67.6236853,96.9216367 C67.7178937,97.4522296 77.2582599,113.458449 88.7628192,132.471361 L109.714212,167.136764 L153.300591,167.136764 L196.980503,167.136764 L217.931895,133.355683 Z" id="Shape"></path>
        </g>
      </g>
    </g>
  </g>
</svg>
