<?xml version="1.0" encoding="UTF-8"?>
<svg width="30px" height="30px" viewBox="0 0 30 30" version="1.1" xmlns="http://www.w3.org/2000/svg" xmlns:xlink="http://www.w3.org/1999/xlink">
    <title>SL/icons/icon/academic</title>

    <g id="SL/icons/icon/academic" stroke="none" stroke-width="1" fill="none" fill-rule="evenodd">
        <g id="iconfinder__user_account_profile_head_person_avatar_4213460">
            <g transform="translate(7.000000, 22.000000)">
                <path d="M1.06953642,5 C3.0584989,2.82786885 5.68543046,1.63934426 8.5,1.63934426 C11.3145695,1.63934426 13.9415011,2.82786885 15.9304636,5 L17,3.83196721 C14.7295806,1.37295082 11.7086093,0 8.5,0 C5.29139073,0 2.27041943,1.37295082 0,3.83196721 L1.06953642,5 Z" id="Path" fill="#005D72" fill-rule="nonzero"></path>
            </g>
        </g>
        <g id="iconfinder_Tilda_Icons_1ed_teacher_3586376" transform="translate(5.878706, 2.000000)" fill="#101010">
            <path d="M0.291105121,4.96495957 L4.04312668,6.61455526 C3.29919137,7.71428571 2.91105121,8.97574124 2.91105121,10.3018868 C2.91105121,13.9245283 5.85444744,16.9002695 9.50943396,16.9002695 C13.1644205,16.9002695 16.1078167,13.9568733 16.1078167,10.3018868 C16.1078167,9.00808625 15.7196765,7.71428571 15.0080863,6.64690027 L18.3072776,5.09433962 L18.3072776,11.3692722 L17.3045822,13.5040431 C17.2398922,13.6657682 17.2398922,13.8274933 17.3369272,13.9568733 C17.4339623,14.0862534 17.5956873,14.1832884 17.7574124,14.1832884 L19.6657682,14.1832884 C19.8274933,14.1832884 19.9892183,14.1185984 20.0539084,13.9568733 C20.1509434,13.8274933 20.1509434,13.6657682 20.0862534,13.5040431 L19.212938,11.3692722 L19.212938,4.67385445 C19.212938,4.41509434 19.180593,4.22102426 18.7277628,4.02695418 C18.6307278,3.99460916 9.73584906,0.0485175202 9.73584906,0.0485175202 C9.606469,-0.0161725067 9.47708895,-0.0161725067 9.34770889,0.0485175202 L0.291105121,4.05929919 C0.129380054,4.12398922 5.32907052e-15,4.3180593 5.32907052e-15,4.51212938 C5.32907052e-15,4.70619946 0.0970350404,4.86792453 0.291105121,4.96495957 Z M14.5205672,10.422829 C14.5205672,13.2054377 12.2596976,15.4663073 9.47708895,15.4663073 C6.69448025,15.4663073 4.43361069,13.2054377 4.43361069,10.422829 C4.43361069,9.35036525 4.78143677,8.3358725 5.39013243,7.46630728 L9.33216141,9.23442322 C9.39013243,9.26340873 9.44810344,9.26340873 9.50607446,9.26340873 C9.56404547,9.26340873 9.62201649,9.26340873 9.6799875,9.23442322 L13.5640455,7.49529278 C14.2017266,8.364858 14.5205672,9.37935076 14.5205672,10.422829 Z M18.5013477,13.212938 L18.7277628,12.7277628 L18.9218329,13.212938 L18.5013477,13.212938 Z M9.54177898,1.51212938 L16.291779,4.51212938 L9.54177898,7.51212938 L2.79177898,4.51212938 L9.54177898,1.51212938 Z" id="Shape" fill="#005D72"></path>
        </g>
    </g>
</svg>
