<?xml version="1.0" encoding="UTF-8"?>
<svg width="30px" height="30px" viewBox="0 0 30 30" version="1.1" xmlns="http://www.w3.org/2000/svg" xmlns:xlink="http://www.w3.org/1999/xlink">
    <title>SL/icons/icon/verified2</title>
    <g id="SL/icons/icon/verified2" stroke="none" stroke-width="1" fill="none" fill-rule="evenodd">
        <path d="M15,1.73205081 L26.4903811,8.3660254 L26.4903811,21.6339746 L15,28.2679492 L3.50961894,21.6339746 L3.50961894,8.3660254 L15,1.73205081 Z" id="Polygon" stroke="#FFFFFF" stroke-width="3" fill="#FFFFFF" transform="translate(15.000000, 15.000000) rotate(-30.000000) translate(-15.000000, -15.000000) "></path>
        <path d="M20.2538918,11.4366182 C19.750549,10.8829334 18.9149408,10.8517041 18.3749936,11.3666537 L14.080461,15.6381085 L12.2687352,13.6773594 C11.7653924,13.1236747 10.9297842,13.0924453 10.389837,13.6073949 C9.87005433,14.1756891 9.87005433,15.0698143 10.389837,15.6381085 L13.1409477,18.5791651 C13.3790691,18.8574148 13.7230221,19.0112832 14.0803326,18.9993544 C14.4343037,18.9941271 14.7719633,18.8430735 15.0197174,18.5791651 L20.2536349,13.3973673 C20.7725185,12.900646 20.8071964,12.0589272 20.3310821,11.5175733 C20.3066792,11.4892926 20.2808634,11.4623523 20.2538918,11.4366182 Z" id="Path" fill="#005D72"  fill-opacity="1"></path>
    </g>
</svg>
