<?xml version="1.0" encoding="UTF-8"?>
<svg width="30px" height="30px" viewBox="0 0 30 30" version="1.1" xmlns="http://www.w3.org/2000/svg" xmlns:xlink="http://www.w3.org/1999/xlink">
    <title>SL/icons/icon/arrow</title>
    <g id="SL/icons/icon/arrow" stroke="none" stroke-width="1" fill="none" fill-rule="evenodd">
        <path  transform="rotate(180, 15, 15)" d="M2.45714286,16.486848 L25.1681714,16.486848 L17.3520571,24.462176 C16.7830429,25.0427811 16.7830429,25.9843128 17.3516929,26.5645462 C17.9207071,27.1451513 18.8438071,27.1451513 19.4128214,26.5645462 L29.7159143,16.0512083 L29.7159143,16.0512083 C29.7836714,15.982071 29.8441429,15.9058712 29.8973286,15.8248393 C29.9217357,15.7872969 29.9388571,15.746781 29.9599857,15.7077518 C29.9840286,15.6616603 30.0117143,15.6177989 30.0310214,15.5691054 C30.0517857,15.5189251 30.0634429,15.4668862 30.0780143,15.4148473 C30.0900357,15.373588 30.1057,15.3341871 30.1140786,15.2918126 C30.1330214,15.195169 30.1428571,15.097782 30.1428571,15.0000232 L30.1428571,15.0000232 C30.1428571,14.9989081 30.1424929,14.997793 30.1424929,14.9966779 C30.1421286,14.900406 30.1326571,14.8037624 30.1140786,14.7089773 C30.1053357,14.6643725 30.0889429,14.6231132 30.0761929,14.5792518 C30.0619857,14.5298149 30.0510571,14.4796346 30.0313857,14.4316845 C30.0102571,14.3800173 29.9818429,14.3331823 29.9556143,14.2844888 C29.9359429,14.2480616 29.9202786,14.210891 29.8976929,14.1759506 C29.8445071,14.0938035 29.7833071,14.0172321 29.7151857,13.947723 L19.4124571,3.43550028 C18.8434429,2.85489521 17.9207071,2.85489521 17.3516929,3.43512857 C16.7826786,4.01573364 16.7826786,4.95726541 17.3516929,5.53824219 L25.1678071,13.5131985 L2.45714286,13.5131985 C1.65243571,13.5131985 1,14.1789243 1,15.0000232 C1,15.8211222 1.65243571,16.486848 2.45714286,16.486848 Z" id="Path" fill="#005D72"></path>
    </g>
</svg>
