<svg
  width="30px"
  height="30px"
  viewBox="0 0 30 30"
  xmlns="http://www.w3.org/2000/svg"
  fill="transparent"
  stroke="#000000"
>
  <g
    id="BookmarkSvg"
    transform="translate(-4.000000, 0.000000)"
    fill="inherit"
    stroke="inherit"
    strokeWidth="2"
  >
    <path
      d="M24,1 C24.2761424,1 24.5261424,1.11192881 24.7071068,1.29289322 C24.8880712,1.47385763 25,1.72385763 25,2 L25,2 L25,27.3333333 C25,27.6094757 24.8880712,27.8594757 24.7071068,28.0404401 C24.5261424,28.2214045 24.2761424,28.3333333 24,28.3333333 C23.7432235,28.3333333 23.4962865,28.2345585 23.3103448,28.0574713 L23.3103448,28.0574713 L16.8942832,21.9469364 C16.3073257,21.3879292 15.5514091,21.112628 14.7980566,21.119474 C14.044704,21.12632 13.2939154,21.4153133 12.7172139,21.9848951 L12.7172139,21.9848951 L6.70270126,27.9251545 C6.50623009,28.1192001 6.24970632,28.2152397 5.99378894,28.2136501 C5.73787156,28.2120606 5.48256057,28.1128419 5.28851498,27.9163707 C5.10365896,27.729204 5,27.4767343 5,27.2136694 L5,27.2136694 L5,2 C5,1.72385763 5.11192881,1.47385763 5.29289322,1.29289322 C5.47385763,1.11192881 5.72385763,1 6,1 L6,1 Z"
      id="Rectangle"
    />
  </g>
</svg>
