<?xml version="1.0" encoding="UTF-8"?>
<svg width="29px" height="28px" viewBox="0 0 29 28" version="1.1" xmlns="http://www.w3.org/2000/svg" xmlns:xlink="http://www.w3.org/1999/xlink">
    <title>SL/icons/naked-icon</title>
    <g id="Symbols" stroke="none" stroke-width="1" fill="none" fill-rule="evenodd">
        <g id="SL/icons/icon/calendar" transform="translate(-1.000000, -1.000000)" fill="#101010">
            <g id="SL/icons/naked-icon" transform="translate(1.000000, 1.000000)">
                <path d="M6.63628858,0 C6.303094,0 6.03298225,0.270575083 6.03298225,0.604348833 L6.03298225,3.62608142 L2.41319058,3.62608142 C1.08042383,3.62608142 0,4.70839333 0,6.04347675 L0,25.3825583 C0,26.7176533 1.08042383,27.8 2.41319058,27.8 L26.5451775,27.8 C27.8779558,27.8 28.9583333,26.7176533 28.9583333,25.3825583 L28.9583333,6.04347675 C28.9583333,4.70839333 27.8779558,3.62608142 26.5451775,3.62608142 L22.9253858,3.62608142 L22.9253858,0.604348833 C22.9253858,0.270575083 22.6552625,0 22.32201,0 L21.11549,0 C20.7822375,0 20.5121142,0.270575083 20.5121142,0.604348833 L20.5121142,3.62608142 L8.44618442,3.62608142 L8.44618442,0.604348833 C8.44618442,0.270575083 8.17607267,0 7.84287808,0 L6.63628858,0 Z M20.5121142,6.04347675 L8.44618442,6.04347675 L8.44618442,7.25217442 C8.44618442,7.58594817 8.17607267,7.85652325 7.84287808,7.85652325 L6.63628858,7.85652325 C6.303094,7.85652325 6.03298225,7.58594817 6.03298225,7.25217442 L6.03298225,6.04347675 L3.61979167,6.04347675 C2.9534025,6.04347675 2.41319058,6.58462692 2.41319058,7.25217442 L2.41319058,9.669535 L26.5451775,9.669535 L26.5451775,7.25217442 C26.5451775,6.58462692 26.0049308,6.04347675 25.3385417,6.04347675 L22.9253858,6.04347675 L22.9253858,7.25217442 C22.9253858,7.58594817 22.6552625,7.85652325 22.32201,7.85652325 L21.11549,7.85652325 C20.7822375,7.85652325 20.5121142,7.58594817 20.5121142,7.25217442 L20.5121142,6.04347675 Z M2.41319058,12.0869767 L26.5451775,12.0869767 L26.5451775,24.1739533 C26.5451775,24.8415008 26.0049308,25.3825583 25.3385417,25.3825583 L3.61979167,25.3825583 C2.9534025,25.3825583 2.41319058,24.8415008 2.41319058,24.1739533 L2.41319058,12.0869767 Z" id="Shape"></path>
            </g>
        </g>
    </g>
</svg>
