<?xml version="1.0" encoding="UTF-8"?>
<svg width="45px" height="45px" viewBox="0 0 35 35" version="1.1" xmlns="http://www.w3.org/2000/svg" xmlns:xlink="http://www.w3.org/1999/xlink">
    <title>SL/icons/icon/casestudy</title>

    <g id="SL/icons/icon/casestudy" stroke="none" stroke-width="1" fill="none" fill-rule="evenodd">
        <g id="iconfinder_Healthcare_medical_healthcare_6602700">
            <g transform="translate(1.000000, 5.000000)">
                <path d="M23,3 C20.2,3 18,5.2 18,8 C18,10.4 19.7,12.4 22,12.9 L22,20.5 C22,24.1 19.1,27 15.5,27 C11.9,27 9,24.1 9,20.5 L9,19.9 C12.9,19.4 16,16 16,12 L16,4 C16,2.9 15.1,2 14,2 L13,2 C12.4,2 12,1.6 12,1 C12,0.4 11.6,0 11,0 C10.4,0 10,0.4 10,1 C10,2.7 11.3,4 13,4 L14,4 L14,12 C14,15.3 11.3,18 8,18 C4.7,18 2,15.3 2,12 L2,4 L3,4 C4.7,4 6,2.7 6,1 C6,0.4 5.6,0 5,0 C4.4,0 4,0.4 4,1 C4,1.6 3.6,2 3,2 L2,2 C0.9,2 0,2.9 0,4 L0,12 C0,16.1 3.1,19.4 7,19.9 L7,20.5 C7,25.2 10.8,29 15.5,29 C20.2,29 24,25.2 24,20.5 L24,12.9 C26.3,12.4 28,10.4 28,8 C28,5.2 25.8,3 23,3 Z M23.7,8.7 C23.5,8.9 23.3,9 23,9 C22.9,9 22.7,9 22.6,8.9 C22.5,8.8 22.4,8.8 22.3,8.7 C22.1,8.5 22,8.3 22,8 C22,7.7 22.1,7.5 22.3,7.3 C22.4,7.2 22.5,7.1 22.6,7.1 C23,6.9 23.4,7 23.7,7.3 C23.9,7.5 24,7.7 24,8 C24,8.3 23.9,8.5 23.7,8.7 Z" id="Shape" fill="#005D72" fill-rule="nonzero"></path>
            </g>
        </g>
    </g>
</svg>
