<?xml version="1.0" encoding="UTF-8"?>
<svg width="30px" height="30px" viewBox="0 0 30 30" version="1.1" xmlns="http://www.w3.org/2000/svg" xmlns:xlink="http://www.w3.org/1999/xlink">
      <g>
        <path d="M0.379530218,0.379529664 C0.885570509,-0.126509888 1.70600802,-0.126509888 2.21204831,0.379529664 L29.6204979,27.7879143 C30.1265007,28.2939163 30.1265007,29.1144026 29.6204979,29.6204047 C29.1144952,30.1265318 28.2940076,30.1265318 27.7880049,29.6204047 L0.379530218,2.21203257 C-0.126510073,1.70600553 -0.126510073,0.885556707 0.379530218,0.379529664 Z" fill="#005D72" ></path>
        <path d="M29.6204978,0.379520955 C29.1144949,-0.126506985 28.2940071,-0.126506985 27.7880042,0.379520955 L0.379520955,27.7880042 C-0.126506985,28.2940071 -0.126506985,29.1144949 0.379520955,29.6204978 C0.885561404,30.1265007 1.70601168,30.1265007 2.21203962,29.6204978 L29.6204978,2.21203962 C30.1265007,1.70601168 30.1265007,0.885561404 29.6204978,0.379520955 Z"  fill="#005D72" ></path>
    </g>
</svg>
