<?xml version="1.0" encoding="UTF-8"?>
<svg width="89px" height="113px" viewBox="0 0 89 113" version="1.1" xmlns="http://www.w3.org/2000/svg" xmlns:xlink="http://www.w3.org/1999/xlink">
  <title>7424575_book_library_data_novel_journal_icon</title>
  <defs>
    <filter id="filter-1">
      <feColorMatrix in="SourceGraphic" type="matrix" values="0 0 0 0 0.698039 0 0 0 0 0.807843 0 0 0 0 0.831373 0 0 0 1.000000 0"></feColorMatrix>
    </filter>
  </defs>
  <g id="Symbols" stroke="none" stroke-width="1" fill="none" fill-rule="evenodd">
    <g filter="url(#filter-1)" id="7424575_book_library_data_novel_journal_icon">
      <g>
        <path d="M88.9162212,19.2660401 L88.9162212,19.2660401 L88.9162212,19.2660401 C88.8925488,19.2078318 88.8662461,19.1469776 88.8373131,19.0914151 L88.8373131,19.0914151 C88.6627406,18.7415699 88.3699167,18.4657747 88.0114089,18.3135399 L88.0114089,18.3135399 C87.9884591,18.3001583 87.9636291,18.2903459 87.9377614,18.2844357 L72.3665728,12.3948093 C72.2572183,12.3029481 72.1360014,12.2264055 72.006226,12.1672676 L56.0667999,6.14005785 C56.0536486,6.14005785 56.0352367,6.14005785 56.0194551,6.14005785 L40.1221132,0.10491058 C39.6591041,-0.0681787921 39.1435943,-0.0255308172 38.7149197,0.221327275 L0.820643722,22.3061034 C0.786450233,22.32727 0.77592916,22.3696034 0.741735672,22.3907701 C0.532621107,22.5313006 0.358835751,22.7187952 0.234093882,22.9384577 C0.213051735,22.9754994 0.181488515,23.0019577 0.163076637,23.0416452 C0.0578947665,23.2594322 0.00219059756,23.4980279 0,23.7401454 L0,92.7964118 C0.323523006,95.3178916 1.48610161,97.2943296 3.45354233,98.6860383 C5.89180108,100.403184 9.18752731,100.860914 12.0203263,100.860914 C13.4623405,100.856185 14.9021607,100.747427 16.3287058,100.535476 C16.8613694,102.230658 17.9417169,103.69827 19.398229,104.705311 C21.8364878,106.419811 25.132214,106.880186 27.9676432,106.880186 C29.4008368,106.875668 30.8318643,106.767794 32.2497201,106.557394 C32.7682587,108.291719 33.8582229,109.796839 35.3402854,110.825124 C37.7785442,112.539625 41.0742704,113 43.9070694,113 C45.893214,112.995127 47.8739381,112.791274 49.8199126,112.391458 C49.8916811,112.362421 49.9611459,112.327925 50.0277038,112.288271 C50.0910558,112.262569 50.1525741,112.232512 50.2118226,112.198312 C50.3029032,112.162469 50.3908791,112.119106 50.4748494,112.068666 L88.1771158,90.1082445 C88.6854399,89.8117673 88.9981787,89.2652688 88.9977595,88.6742025 L88.9977595,19.8639986 C89.0084556,19.6612841 88.980786,19.4583702 88.9162212,19.2660401 Z M48.8230409,40.366566 C46.4005638,40.8533995 40.3772493,41.4645871 37.2498602,39.2553157 C36.3641711,38.6419954 35.7143083,37.7417452 35.4086724,36.7047318 L71.5985345,15.6174351 L83.5531041,20.1365195 L48.8230409,40.366566 Z M33.0887757,34.215002 C33.0651033,34.215002 33.0414309,34.215002 33.0177585,34.215002 C30.689971,34.7044813 24.495689,35.3871065 21.299913,33.1302101 C20.4142239,32.5168898 19.7643611,31.6166396 19.4587252,30.5796262 L55.6485872,9.49232949 L67.6978465,14.0484556 L33.0887757,34.215002 Z M39.6933795,3.48364055 L51.6400583,8.00272496 L16.9205162,28.2327715 C14.5138207,28.7248966 8.50365754,29.3519592 5.34733553,27.1294587 C4.455862,26.5174909 3.80032031,25.6161575 3.49036609,24.5762289 L39.6933795,3.48364055 Z M5.35259607,95.9819959 C4.21705094,95.2017217 3.46751088,93.9701317 3.29309596,92.5979743 L3.29309596,29.690626 C3.3562224,29.7356051 3.40356723,29.7938135 3.46669367,29.8414385 C5.90232215,31.5559389 9.19541811,32.0189599 12.0282171,32.0189599 C13.3389341,32.0171906 14.6481197,31.9288059 15.9473169,31.7543765 L15.9473169,97.2705171 C13.1566022,97.6806213 8.12752917,97.9399131 5.35259607,95.9819959 Z M21.299913,102.014497 C20.1629787,101.234351 19.4131325,100.001295 19.2404129,98.6278299 L19.2404129,35.7125441 C19.3035393,35.7601691 19.3482539,35.8183774 19.4113803,35.8633566 C21.8496391,37.577857 25.1453653,38.0382321 27.9807946,38.0382321 C29.2871328,38.0361808 30.5919257,37.9477959 31.8867431,37.7736487 L31.8867431,103.287144 C29.0960284,103.705185 24.0722158,103.95654 21.299913,102.014497 Z M37.2393391,108.134311 C36.1036581,107.352966 35.3541904,106.120532 35.179839,104.747644 L35.179839,41.8561705 L35.3534367,41.9805247 C39.080527,44.605192 44.8092514,44.2876919 47.8261692,43.8855252 L47.8261692,109.401666 C45.0328242,109.822353 40.0090117,110.073708 37.2393391,108.121082 L37.2393391,108.134311 Z M85.7204452,87.726994 L51.1192652,107.888249 L51.1192652,42.8642333 L85.7204452,22.6976868 L85.7204452,87.726994 Z" id="Shape" fill="#000000" fill-rule="nonzero"></path>
      </g>
    </g>
  </g>
</svg>
