<?xml version="1.0" encoding="UTF-8"?>
<svg width="105px" height="97px" viewBox="0 0 105 97" version="1.1" xmlns="http://www.w3.org/2000/svg" xmlns:xlink="http://www.w3.org/1999/xlink">
  <title>4230535_calendar_event_star_icon</title>
  <defs>
    <filter id="filter-1">
      <feColorMatrix in="SourceGraphic" type="matrix" values="0 0 0 0 0.698039 0 0 0 0 0.807843 0 0 0 0 0.831373 0 0 0 1.000000 0"></feColorMatrix>
    </filter>
  </defs>
  <g id="Symbols" stroke="none" stroke-width="1" fill="none" fill-rule="evenodd">
    <g filter="url(#filter-1)" id="4230535_calendar_event_star_icon">
      <g>
        <path d="M39.4519023,67.0692819 L37.7529447,76.9874668 C37.4915666,78.5899683 38.1450118,80.1924698 39.4519023,81.1453085 C40.1924735,81.7083495 41.0637338,81.9682146 41.9785572,81.9682146 C42.6755654,81.9682146 43.3290106,81.7949712 43.9824559,81.4917953 L52.956437,76.8142234 L61.9304181,81.4917953 C63.3679976,82.2713906 65.1105182,82.141458 66.4609717,81.1886193 C67.8114251,80.2357806 68.4648704,78.6332791 68.1599293,77.0307776 L66.4609717,67.1125927 L73.6924322,60.0962349 C74.8686336,58.9701527 75.3042638,57.2810296 74.7815076,55.7218389 C74.2587514,54.1626483 72.9518609,53.0365662 71.3400294,52.8200119 L61.3205359,51.3907538 L56.8335453,42.3820968 C56.0929741,40.9095279 54.6118316,40 53,40 C51.3446054,40 49.8634629,40.9095279 49.1664547,42.3820968 L44.6794641,51.3907538 L34.6599706,52.8200119 C33.0481391,53.0365662 31.6976856,54.1626483 31.2184924,55.7218389 C30.6957362,57.2810296 31.1313664,58.9701527 32.3075678,60.0962349 L39.4519023,67.0692819 Z M46.3348587,55.418663 C47.0318669,55.3320413 47.6417491,54.8556219 47.9466902,54.24927 L52.869311,44.2011525 L57.8354947,54.24927 C58.1404358,54.8989328 58.750318,55.3320413 59.4473262,55.418663 L70.5558951,56.9778536 L62.5403003,64.7738068 C62.0175441,65.2502261 61.7997291,65.9865106 61.9304181,66.6794842 L63.8907538,77.6804404 L53.9148233,72.4831383 C53.3049411,72.1366515 52.5208068,72.1366515 51.9109246,72.4831383 L42.0221202,77.6804404 L43.9388928,66.6361734 C44.0695819,65.9431998 43.8082038,65.2069153 43.3290106,64.7304959 L35.2262898,56.9778536 L46.3348587,55.418663 Z" id="Shape" fill="#000000" fill-rule="nonzero"></path>
        <path d="M98.25491,8.64527629 L86.2254501,8.64527629 L86.2254501,2.16131907 C86.2254501,0.994206774 85.2802782,0 84.0773322,0 C82.8743863,0 81.9292144,0.950980392 81.9292144,2.16131907 L81.9292144,8.64527629 L23.0707856,8.64527629 L23.0707856,2.16131907 C23.0707856,0.994206774 22.1256137,0 20.9226678,0 C19.7626841,0 18.7745499,0.950980392 18.7745499,2.16131907 L18.7745499,8.64527629 L6.74509002,8.64527629 C3.00736498,8.64527629 0,11.671123 0,15.4318182 L0,26.1951872 C0,26.1951872 0,26.1951872 0,26.1951872 L0,90.2134581 C0,93.9741533 3.00736498,97 6.74509002,97 L98.25491,97 C101.992635,97 105,93.9741533 105,90.2134581 L105,26.1951872 C105,26.1951872 105,26.1951872 105,26.1951872 L105,15.4318182 C105,11.671123 101.949673,8.64527629 98.25491,8.64527629 Z M100.746727,90.2134581 C100.746727,91.5967023 99.6297054,92.7205882 98.25491,92.7205882 L6.74509002,92.7205882 C5.3702946,92.7205882 4.25327332,91.5967023 4.25327332,90.2134581 L4.25327332,28.3565062 L100.703764,28.3565062 L100.703764,90.2134581 L100.746727,90.2134581 Z M100.746727,24.0770945 L4.25327332,24.0770945 L4.25327332,15.4318182 C4.25327332,14.048574 5.3702946,12.9246881 6.74509002,12.9246881 L98.25491,12.9246881 C99.6297054,12.9246881 100.746727,14.048574 100.746727,15.4318182 L100.746727,24.0770945 Z" id="Shape" fill="#000000" fill-rule="nonzero"></path>
      </g>
    </g>
  </g>
</svg>
