<?xml version="1.0" encoding="UTF-8"?>
<svg width="30px" height="30px" viewBox="0 0 30 30" version="1.1" xmlns="http://www.w3.org/2000/svg" xmlns:xlink="http://www.w3.org/1999/xlink">
    <title>SL/icons/icon/followed</title>
    <g id="SL/icons/icon/followed" stroke="none" stroke-width="1" fill="none" fill-rule="evenodd">
        <g id="followers" transform="translate(0.000000, 0.000234)" fill="#000000" fill-rule="nonzero">
            <path d="M23.0251758,11.6950195 C24.4876758,10.4820117 25.4208398,8.65183594 25.4208398,6.60773438 C25.4207813,2.96425781 22.4565234,0 18.8129883,0 C15.1694531,0 12.2052539,2.96425781 12.2052539,6.60773438 C12.2052539,7.08398438 12.2563477,7.54845703 12.3525586,7.99640625 C11.9762695,7.92960938 11.5891992,7.89462891 11.194043,7.89462891 C7.55050781,7.89462891 4.58630859,10.8588867 4.58630859,14.5023633 C4.58630859,16.5462891 5.51929688,18.3762891 6.9815625,19.5893555 C2.89095703,21.2570508 0,25.276875 0,29.9598633 L2.34427734,29.9598633 C2.34427734,25.0800586 6.31423828,21.1101563 11.1939844,21.1101563 C14.8375195,21.1101563 17.8017187,18.1458984 17.8017187,14.5024219 C17.8017187,14.0261719 17.750625,13.5616406 17.6544141,13.1136914 C18.0307031,13.1804883 18.4177734,13.2154688 18.8129297,13.2154688 C21.6885937,13.2154688 24.2472656,14.595 25.8646875,16.7261719 L27.4532227,14.9574609 C26.2791211,13.5325781 24.7599023,12.4025391 23.0251758,11.6950195 Z M11.194043,18.7658203 C8.84320313,18.7658203 6.93058594,16.8532617 6.93058594,14.5023633 C6.93058594,12.1514648 8.84320313,10.2389062 11.194043,10.2389062 C13.5448828,10.2389062 15.4575,12.1515234 15.4575,14.5023633 C15.4575,16.8532031 13.5448828,18.7658203 11.194043,18.7658203 Z M18.8129883,10.8711328 C16.4621484,10.8711328 14.5495313,8.95857422 14.5495313,6.60767578 C14.5495313,4.25677734 16.4621484,2.34427734 18.8129883,2.34427734 C21.1638281,2.34427734 23.0764453,4.25683594 23.0764453,6.60773438 C23.0764453,8.95869141 21.1638867,10.8711328 18.8129883,10.8711328 Z" id="Shape"></path>
            <polygon id="Path" points="28.2558398 17.5723242 20.1135352 26.6379492 15.5186133 22.2639844 13.9023633 23.9620313 20.2452539 29.9997656 30 19.1388281"></polygon>
        </g>
    </g>
</svg>