<?xml version="1.0" encoding="UTF-8"?>
<svg width="30px" height="30px" viewBox="0 0 30 30" version="1.1" xmlns="http://www.w3.org/2000/svg" xmlns:xlink="http://www.w3.org/1999/xlink">
    <title>SL/icons/icon/follow</title>
    <g id="SL/icons/icon/follow" stroke="none" stroke-width="1" fill="none" fill-rule="evenodd">
        <g id="follower" transform="translate(0.000000, 1.226563)" fill="#000000" fill-rule="nonzero">
            <path d="M28.828125,6.35742187 L27.7734375,6.35742187 L27.7734375,5.30273437 C27.7734375,4.65550781 27.2487891,4.13085937 26.6015625,4.13085937 C25.9543359,4.13085937 25.4296875,4.65550781 25.4296875,5.30273437 L25.4296875,6.35742187 L24.375,6.35742187 C23.7277734,6.35742187 23.203125,6.88207031 23.203125,7.52929687 C23.203125,8.17652344 23.7277734,8.70117187 24.375,8.70117187 L25.4296875,8.70117187 L25.4296875,9.75585937 C25.4296875,10.4030859 25.9543359,10.9277344 26.6015625,10.9277344 C27.2487891,10.9277344 27.7734375,10.4030859 27.7734375,9.75585937 L27.7734375,8.70117187 L28.828125,8.70117187 C29.4753516,8.70117187 30,8.17652344 30,7.52929687 C30,6.88207031 29.4753516,6.35742187 28.828125,6.35742187 Z" id="Path"></path>
            <path d="M18.4809961,13.4900977 C20.2648828,12.1119727 21.4160156,9.95273437 21.4160156,7.52929687 C21.4160156,3.37763672 18.0383789,0 13.8867188,0 C9.73505859,0 6.35742188,3.37763672 6.35742188,7.52929687 C6.35742188,9.95267578 7.50855469,12.1119727 9.29244141,13.4900977 C4.00154297,15.3394336 0,20.4156445 0,26.6015625 C0,27.2487891 0.524648438,27.7734375 1.171875,27.7734375 L26.6015625,27.7734375 C27.2487891,27.7734375 27.7734375,27.2487891 27.7734375,26.6015625 C27.7734375,20.4141211 23.7689063,15.3383789 18.4809961,13.4900977 Z M8.70117188,7.52929687 C8.70117188,4.66998047 11.0274023,2.34375 13.8867188,2.34375 C16.7460352,2.34375 19.0722656,4.66998047 19.0722656,7.52929687 C19.0722656,10.3886133 16.7460352,12.7148438 13.8867188,12.7148438 C11.0274023,12.7148438 8.70117188,10.3886133 8.70117188,7.52929687 Z M2.4028125,25.4296875 C2.99185547,19.6130859 7.91736328,15.0585937 13.8867187,15.0585937 C19.8560742,15.0585937 24.781582,19.6130859 25.370625,25.4296875 L2.4028125,25.4296875 Z" id="Shape"></path>
        </g>
    </g>
</svg>