<?xml version="1.0" encoding="UTF-8"?>
<svg width="30px" height="23px" viewBox="0 0 30 23" version="1.1" xmlns="http://www.w3.org/2000/svg" xmlns:xlink="http://www.w3.org/1999/xlink">
    <title>1814111_image_photograph_picture_icon</title>
    <g id="Symbols" stroke="none" stroke-width="1" fill="none" fill-rule="evenodd">
        <g id="SL/icons/icon/photo(2)" transform="translate(0.000000, -4.000000)" fill="#101010" fill-rule="nonzero">
            <g id="1814111_image_photograph_picture_icon" transform="translate(0.000000, 4.000000)">
                <path d="M27.3695198,22.9227557 L2.63048017,22.9227557 C1.18997912,22.9227557 0,21.7327766 0,20.2922756 L0,2.63048017 C0,1.18997912 1.18997912,0 2.63048017,0 L27.3695198,0 C28.8100209,0 30,1.18997912 30,2.63048017 L30,20.2922756 C30,21.7327766 28.8100209,22.9227557 27.3695198,22.9227557 L27.3695198,22.9227557 Z M2.56784969,1.69102296 C2.06680585,1.69102296 1.69102296,2.06680585 1.69102296,2.56784969 L1.69102296,20.2296451 C1.69102296,20.7306889 2.06680585,21.1064718 2.56784969,21.1064718 L27.3068894,21.1064718 C27.8079332,21.1064718 28.1837161,20.7306889 28.1837161,20.2296451 L28.1837161,2.56784969 C28.1837161,2.06680585 27.8079332,1.69102296 27.3068894,1.69102296 L2.56784969,1.69102296 L2.56784969,1.69102296 Z" id="Fill-12"></path>
                <path d="M19.4154489,10.4592902 C17.473904,10.4592902 15.9707724,8.89352818 15.9707724,7.01461378 C15.9707724,5.13569937 17.5365344,3.56993737 19.4154489,3.56993737 C21.2943633,3.56993737 22.8601253,5.13569937 22.8601253,7.01461378 C22.8601253,8.89352818 21.2943633,10.4592902 19.4154489,10.4592902 L19.4154489,10.4592902 Z M19.4154489,5.13569937 C18.4133612,5.13569937 17.5991649,5.94989562 17.5991649,6.9519833 C17.5991649,7.95407098 18.4133612,8.76826722 19.4154489,8.76826722 C20.4175365,8.76826722 21.2317328,7.95407098 21.2317328,6.9519833 C21.2317328,5.94989562 20.4175365,5.13569937 19.4154489,5.13569937 L19.4154489,5.13569937 Z" id="Fill-13"></path>
                <polyline id="Fill-14" points="24.1127349 22.6096033 9.64509395 9.01878914 1.37787056 16.6597077 0.250521921 15.4697286 9.64509395 6.76409186 25.2400835 21.4196242 24.1127349 22.6096033"></polyline>
                <polyline id="Fill-15" points="28.6221294 18.1002088 23.7995825 14.217119 19.7912317 17.5365344 18.7265136 16.2212944 23.7995825 12.0876827 29.6242171 16.8475992 28.6221294 18.1002088"></polyline>
            </g>
        </g>
    </g>
</svg>