<?xml version="1.0" encoding="UTF-8"?>
<svg width="30px" height="30px" viewBox="0 0 30 30" version="1.1" xmlns="http://www.w3.org/2000/svg" xmlns:xlink="http://www.w3.org/1999/xlink">
    <title>Like clicked</title>
    <g  stroke="none" stroke-width="1" fill="none" fill-rule="evenodd">
        <g  id="like">
            <g transform="translate(0.000000, 1.250039)">
                <path d="M16.2499805,0 C17.69625,0 19.9999805,2.28873047 19.9999805,4.99998047 C19.9999805,6.70998047 19.3875,8.83869141 19.005,9.99996094 L19.005,9.99996094 L26.72625,9.99996094 C28.4087109,9.99996094 29.8399805,11.2449609 29.9862305,12.8337305 C30.0675,13.7249414 29.7700195,14.5812305 29.18625,15.2199609 C29.7012305,15.7362305 30,16.43625 30,17.1874805 C30,18.2712305 29.3800195,19.2237305 28.4575195,19.6887305 C28.6487695,20.0712305 28.7500195,20.4949805 28.7500195,20.9374805 C28.7500195,22.0212305 28.12875,22.9749609 27.20625,23.4387305 C27.49125,24.0087305 27.5749805,24.6649805 27.43125,25.3174805 C27.1512891,26.5824609 25.9600195,27.4999805 24.5987695,27.4999805 L24.5987695,27.4999805 L13.125,27.4999805 C12.2562305,27.4999805 10.85625,27.2187305 9.81621094,26.6837109 C9.38121094,27.8874609 8.22621094,28.7499609 6.87498047,28.7499609 L6.87498047,28.7499609 L3.12498047,28.7499609 C1.40126953,28.7499609 0,27.34875 0,25.6249805 L0,25.6249805 L0,15.6249609 C0,13.90125 1.40126953,12.4999805 3.12498047,12.4999219 L3.12498047,12.4999219 L9.37494141,12.4999219 C9.71994141,12.4999219 9.99996094,12.7799414 9.99996094,13.1249414 L9.99996094,13.1249414 L9.99996094,13.3637109 L10.1487305,13.2874805 L13.7499609,5.48871094 L13.7499609,1.24998047 C13.7499609,1.06001953 13.8362109,0.880019531 13.9849805,0.76125 C14.0237109,0.73125 14.9524805,0 16.2499805,0 Z" id="Shape" fill="#cba348" fill-rule="nonzero"></path>
                <path d="M9.375,13.7499609 C9.03,13.7499609 8.74998047,14.0299805 8.74998047,14.3749805 L8.74998047,25.6249805 C8.74998047,25.9699805 9.03,26.25 9.375,26.25 C9.72,26.25 10.0000195,25.9699805 10.0000195,25.6249805 L10.0000195,14.3749805 C10.0000195,14.0299805 9.72,13.7499609 9.375,13.7499609 Z" id="Path" fill="#cba348" fill-rule="nonzero"></path>
            </g>
        </g>
    </g>
</svg>
