<?xml version="1.0" encoding="UTF-8"?>
<svg width="30px" height="30px" viewBox="0 0 30 30" version="1.1" xmlns="http://www.w3.org/2000/svg" xmlns:xlink="http://www.w3.org/1999/xlink">
    <title>SL/icons/icon/like</title>
    <defs>
        <filter color-interpolation-filters="auto" id="filter-1">
            <feColorMatrix in="SourceGraphic" type="matrix" values="0 0 0 0 0.061368 0 0 0 0 0.061368 0 0 0 0 0.061368 0 0 0 1.000000 0"></feColorMatrix>
        </filter>
    </defs>
    <g id="SL/icons/icon/like" stroke="none" stroke-width="1" fill="none" fill-rule="evenodd">
        <g filter="url(#filter-1)" id="like">
            <g transform="translate(0.000000, 1.250039)">
                <path d="M30,17.1874805 C30,16.43625 29.7012305,15.7362305 29.18625,15.2199609 C29.7700195,14.5812305 30.0675,13.7249414 29.9862305,12.8337305 C29.8399805,11.2449609 28.4087109,9.99996094 26.72625,9.99996094 L19.005,9.99996094 C19.3875,8.83869141 19.9999805,6.70998047 19.9999805,4.99998047 C19.9999805,2.28873047 17.69625,0 16.2499805,0 C14.9524805,0 14.0237109,0.73125 13.9849805,0.76125 C13.8362109,0.880019531 13.7499609,1.06001953 13.7499609,1.24998047 L13.7499609,5.48871094 L10.1487305,13.2874805 L9.99996094,13.3637109 L9.99996094,13.1249414 C9.99996094,12.7799414 9.71994141,12.4999219 9.37494141,12.4999219 L3.12498047,12.4999219 C1.40126953,12.4999805 0,13.90125 0,15.6249609 L0,25.6249805 C0,27.34875 1.40126953,28.7499609 3.12498047,28.7499609 L6.87498047,28.7499609 C8.22621094,28.7499609 9.38121094,27.8874609 9.81621094,26.6837109 C10.85625,27.2187305 12.2562305,27.4999805 13.125,27.4999805 L24.5987695,27.4999805 C25.9600195,27.4999805 27.1512891,26.5824609 27.43125,25.3174805 C27.5749805,24.6649805 27.49125,24.0087305 27.20625,23.4387305 C28.12875,22.9749609 28.7500195,22.0212305 28.7500195,20.9374805 C28.7500195,20.4949805 28.6487695,20.0712305 28.4575195,19.6887305 C29.3800195,19.2237305 30,18.2712305 30,17.1874805 Z M27.36375,18.7299609 C27.1225195,18.7587305 26.9187305,18.9224414 26.8412695,19.1537109 C26.7650391,19.3849805 26.8287891,19.6386914 27.0062695,19.8062109 C27.3237891,20.1049805 27.5000391,20.5074609 27.5000391,20.9374805 C27.5000391,21.7262109 26.9037891,22.3887305 26.1150586,22.4799609 C25.8738281,22.5087305 25.6700391,22.6724414 25.5925781,22.9037109 C25.5163477,23.1349805 25.5800977,23.3886914 25.7575781,23.5562109 C26.1688477,23.9436914 26.3338477,24.4874414 26.2100977,25.0474805 C26.0563477,25.7449805 25.3788281,26.25 24.5988281,26.25 L13.125,26.25 C12.1099805,26.25 10.4074805,25.77375 9.8175,25.1824805 C9.63873047,25.005 9.36873047,24.9525 9.13623047,25.0474805 C8.9025,25.14375 8.74998047,25.3725 8.74998047,25.6249805 C8.74998047,26.65875 7.90875,27.4999805 6.87498047,27.4999805 L3.12498047,27.4999805 C2.09121094,27.4999805 1.24998047,26.65875 1.24998047,25.6249805 L1.24998047,15.6249609 C1.24998047,14.5911914 2.09121094,13.7499609 3.12498047,13.7499609 L8.74998047,13.7499609 L8.74998047,14.3749805 C8.74998047,14.59125 8.86248047,14.7924609 9.04746094,14.9074805 C9.22998047,15.0174609 9.45996094,15.0287109 9.65496094,14.9337305 L10.9049414,14.3087109 C11.0312109,14.2461914 11.1324609,14.1411914 11.1924609,14.0124609 L14.9424609,5.88744141 C14.9799609,5.80494141 14.9999414,5.71494141 14.9999414,5.62494141 L14.9999414,1.58871094 C15.2599805,1.44498047 15.7112695,1.24998047 16.2499805,1.24998047 C16.935,1.24998047 18.75,2.95248047 18.75,4.99998047 C18.75,7.2 17.5525195,10.3712109 17.5412695,10.4025 C17.4687891,10.59375 17.49375,10.8100195 17.61,10.98 C17.7274805,11.14875 17.9200195,11.25 18.1249805,11.25 L26.72625,11.25 C27.76875,11.25 28.65375,11.99625 28.7412305,12.94875 C28.8075,13.66125 28.4649609,14.3387695 27.85125,14.7175195 C27.66,14.835 27.5462695,15.0475195 27.555,15.27375 C27.5637305,15.4999805 27.69375,15.7024805 27.8937305,15.80625 C28.4224805,16.0750195 28.7499609,16.605 28.7499609,17.1874805 C28.7499609,17.9762109 28.1537695,18.6387305 27.36375,18.7299609 Z" id="Shape" fill="#000000" fill-rule="nonzero"></path>
                <path d="M9.375,13.7499609 C9.03,13.7499609 8.74998047,14.0299805 8.74998047,14.3749805 L8.74998047,25.6249805 C8.74998047,25.9699805 9.03,26.25 9.375,26.25 C9.72,26.25 10.0000195,25.9699805 10.0000195,25.6249805 L10.0000195,14.3749805 C10.0000195,14.0299805 9.72,13.7499609 9.375,13.7499609 Z" id="Path" fill="#000000" fill-rule="nonzero"></path>
            </g>
        </g>
    </g>
</svg>