<?xml version="1.0" encoding="UTF-8"?>
<svg width="61px" height="96px" viewBox="0 0 61 96" version="1.1" xmlns="http://www.w3.org/2000/svg" xmlns:xlink="http://www.w3.org/1999/xlink">
  <title>microphone</title>
  <defs>
    <filter id="filter-1">
      <feColorMatrix in="SourceGraphic" type="matrix" values="0 0 0 0 0.698039 0 0 0 0 0.807843 0 0 0 0 0.831373 0 0 0 1.000000 0"></feColorMatrix>
    </filter>
  </defs>
  <g id="Symbols" stroke="none" stroke-width="1" fill="none" fill-rule="evenodd">
    <g filter="url(#filter-1)" id="microphone">
      <g>
        <path d="M60.231,40.8811875 L60.231,33.8655 C60.231,32.31225 58.97175,31.053 57.4185,31.053 C55.86525,31.053 54.606,32.31225 54.606,33.8655 L54.606,40.8811875 C54.606,54.3853125 43.619625,65.3716875 30.1155,65.3716875 C16.611375,65.3716875 5.625,54.3853125 5.625,40.8811875 L5.625,33.8655 C5.625,32.31225 4.36575,31.053 2.8125,31.053 C1.25925,31.053 0,32.31225 0,33.8655 L0,40.8811875 C0,56.5385625 12.01125,69.4411875 27.303,70.8643125 L27.303,78.80625 L16.6156875,78.80625 C9.926625,78.80625 4.4844375,84.24825 4.4844375,90.9375 C4.4844375,93.729 6.7554375,96 9.5469375,96 L50.6836875,96 C53.4751875,96 55.7461875,93.729 55.7461875,90.9375 C55.7461875,84.24825 50.3041875,78.80625 43.6149375,78.80625 L32.928,78.80625 L32.928,70.864125 C48.21975,69.4411875 60.231,56.538375 60.231,40.8811875 Z M50.097375,90.375 L10.133625,90.375 C10.4195625,87.0496875 13.217625,84.43125 16.6156875,84.43125 L43.615125,84.43125 C47.013375,84.43125 49.81125,87.0496875 50.097375,90.375 L50.097375,90.375 Z" id="Shape" fill="#000000" fill-rule="nonzero"></path>
        <path d="M30.1155,59.7466875 C40.518,59.7466875 48.981,51.2836875 48.981,40.8811875 L48.981,18.8655 C48.981,8.463 40.518,0 30.1155,0 C19.713,0 11.25,8.463 11.25,18.8655 L11.25,40.881 C11.25,51.2836875 19.713,59.7466875 30.1155,59.7466875 Z M30.1155,5.625 C36.451125,5.625 41.7590625,10.099125 43.0524375,16.053 L36.5625,16.053 C35.00925,16.053 33.75,17.31225 33.75,18.8655 C33.75,20.41875 35.00925,21.678 36.5625,21.678 L43.356,21.678 L43.356,27.303 L36.5625,27.303 C35.00925,27.303 33.75,28.56225 33.75,30.1155 C33.75,31.66875 35.00925,32.928 36.5625,32.928 L43.356,32.928 L43.356,38.553 L36.5625,38.553 C35.00925,38.553 33.75,39.81225 33.75,41.3655 C33.75,42.91875 35.00925,44.178 36.5625,44.178 L42.9405,44.178 C41.4714375,49.8890625 36.278625,54.1216875 30.1156875,54.1216875 C23.95275,54.1216875 18.75975,49.8890625 17.290875,44.178 L23.477625,44.178 C25.030875,44.178 26.290125,42.91875 26.290125,41.3655 C26.290125,39.81225 25.030875,38.553 23.477625,38.553 L16.8751875,38.553 L16.8751875,32.928 L23.477625,32.928 C25.030875,32.928 26.290125,31.66875 26.290125,30.1155 C26.290125,28.56225 25.030875,27.303 23.477625,27.303 L16.8751875,27.303 L16.8751875,21.678 L23.477625,21.678 C25.030875,21.678 26.290125,20.41875 26.290125,18.8655 C26.290125,17.31225 25.030875,16.053 23.477625,16.053 L17.17875,16.053 C18.4719375,10.099125 23.779875,5.625 30.1155,5.625 L30.1155,5.625 Z" id="Shape" fill="#000000" fill-rule="nonzero"></path>
      </g>
    </g>
  </g>
</svg>
