<?xml version="1.0" encoding="UTF-8"?>
<svg width="30px" height="29px" viewBox="0 0 30 29" version="1.1" xmlns="http://www.w3.org/2000/svg" xmlns:xlink="http://www.w3.org/1999/xlink">
    <title>6860342_choice_form_list_multi_multiple_icon</title>
    <g id="Symbols" stroke="none" stroke-width="1" fill="none" fill-rule="evenodd">
        <g id="SL/icons/icon/MCQs" transform="translate(0.000000, -1.000000)" fill="#101010" fill-rule="nonzero">
            <g id="6860342_choice_form_list_multi_multiple_icon" transform="translate(-0.000000, 1.000000)">
                <path d="M6.33362294,12.6672459 C2.84131089,12.6672459 0,9.82623805 0,6.33362294 C0,2.84100782 2.84131089,0 6.33362294,0 C9.82593498,0 12.6672459,2.84100782 12.6672459,6.33362294 C12.6672459,9.82623805 9.82623805,12.6672459 6.33362294,12.6672459 Z M6.33362294,1.26654274 C3.53989453,1.26654274 1.26684582,3.53959146 1.26684582,6.33331986 C1.26684582,9.12704827 3.53989453,11.400097 6.33362294,11.400097 C9.12735134,11.400097 11.4004001,9.12704827 11.4004001,6.33331986 C11.4004001,3.53959146 9.12735134,1.26654274 6.33362294,1.26654274 Z" id="Shape"></path>
                <path d="M5.70020003,8.55030004 C5.53260057,8.55030004 5.37136565,8.48392702 5.2522579,8.36481927 L3.98541208,7.09797345 C3.73810438,6.85066575 3.73810438,6.44969996 3.98541208,6.20239226 C4.23271978,5.95508456 4.63368557,5.95508456 4.88099327,6.20239226 L5.6474653,6.96886428 L7.73897319,4.35455519 C7.95718586,4.0811832 8.35693937,4.03754066 8.62909906,4.25545027 C8.90247106,4.47366294 8.94671974,4.87250722 8.72820399,5.14557614 L6.19481543,8.31238761 C6.08234648,8.45314675 5.91524924,8.53934071 5.73535652,8.54939082 C5.72353666,8.54999697 5.71201988,8.55030004 5.70020003,8.55030004 L5.70020003,8.55030004 Z M29.366274,6.96674277 L15.4324854,6.96674277 C15.0824359,6.96674277 14.7990625,6.68306629 14.7990625,6.33331986 C14.7990625,5.98357343 15.0824359,5.69989696 15.4324854,5.69989696 L29.3665771,5.69989696 C29.7166266,5.69989696 30,5.98357343 30,6.33331986 C29.9996969,6.68336937 29.7163235,6.96674277 29.366274,6.96674277 Z" id="Shape"></path>
                <path d="M6.33362294,28.6672459 C2.84131089,28.6672459 0,25.8256319 0,22.3336229 C0,18.841614 2.84100782,16 6.33362294,16 C9.82623805,16 12.6672459,18.841614 12.6672459,22.3336229 C12.6672459,25.8256319 9.82623805,28.6672459 6.33362294,28.6672459 Z M6.33362294,17.2668458 C3.53989453,17.2668458 1.26684582,19.5398945 1.26684582,22.3336229 C1.26684582,25.1273513 3.53989453,27.4004001 6.33362294,27.4004001 C9.12735134,27.4004001 11.4004001,25.1273513 11.4004001,22.3336229 C11.4004001,19.5398945 9.12735134,17.2668458 6.33362294,17.2668458 Z" id="Shape"></path>
                <path d="M7.8577256,20.6529854 C8.04689337,20.8117161 8.07156757,21.0937434 7.91283696,21.2829112 L7.00392418,22.3653674 L7.91283696,23.4482453 C8.05172624,23.6137671 8.05019622,23.8503845 7.92091594,24.0132897 L7.8577256,24.078171 C7.66855782,24.2369017 7.38653045,24.2122275 7.22779984,24.0230597 L7.22779984,24.0230597 L6.41992418,23.0603674 L5.61357938,24.0230597 C5.45484876,24.2122275 5.1728214,24.2369017 4.98365362,24.078171 C4.79448584,23.9194404 4.76981164,23.6374131 4.92854226,23.4482453 L5.83592418,22.3653674 L4.92854226,21.2829112 C4.78965297,21.1173894 4.79118299,20.880772 4.92046327,20.7178668 L4.98365362,20.6529854 C5.1728214,20.4942548 5.45484876,20.518929 5.61357938,20.7080968 L5.61357938,20.7080968 L6.41992418,21.6693674 L7.22779984,20.7080968 C7.38653045,20.518929 7.66855782,20.4942548 7.8577256,20.6529854 Z M29.3665771,21.5339543 C29.7166266,21.5339543 30,21.8173277 30,22.1673772 C30,22.5174267 29.7163235,22.8008001 29.366274,22.8008001 L15.4324854,22.8008001 C15.0824359,22.8008001 14.7990625,22.5174267 14.7990625,22.1673772 C14.7990625,21.8173277 15.0824359,21.5339543 15.4324854,21.5339543 L29.3665771,21.5339543 Z" id="Shape"></path>
            </g>
        </g>
    </g>
</svg>
