<?xml version="1.0" encoding="UTF-8"?>
<svg width="94px" height="97px" viewBox="0 0 94 97" version="1.1" xmlns="http://www.w3.org/2000/svg" xmlns:xlink="http://www.w3.org/1999/xlink">
  <title>Shape</title>
  <g id="Symbols" stroke="none" stroke-width="1" fill="none" fill-rule="evenodd">
    <path d="M76.9310345,10.0344828 C67.5655172,10.0344828 60.2068966,17.3931034 60.2068966,26.7586207 C60.2068966,34.7862069 65.8931034,41.4758621 73.5862069,43.1482759 L73.5862069,68.5689655 C73.5862069,80.6103448 63.8862069,90.3103448 51.8448276,90.3103448 C39.8034483,90.3103448 30.1034483,80.6103448 30.1034483,68.5689655 L30.1034483,66.562069 C43.1482759,64.8896552 53.5172414,53.5172414 53.5172414,40.137931 L53.5172414,13.3793103 C53.5172414,9.7 50.5068966,6.68965517 46.8275862,6.68965517 L43.4827586,6.68965517 C41.4758621,6.68965517 40.137931,5.35172414 40.137931,3.34482759 C40.137931,1.33793103 38.8,0 36.7931034,0 C34.7862069,0 33.4482759,1.33793103 33.4482759,3.34482759 C33.4482759,9.03103448 37.7965517,13.3793103 43.4827586,13.3793103 L46.8275862,13.3793103 L46.8275862,40.137931 C46.8275862,51.1758621 37.7965517,60.2068966 26.7586207,60.2068966 C15.7206897,60.2068966 6.68965517,51.1758621 6.68965517,40.137931 L6.68965517,13.3793103 L10.0344828,13.3793103 C15.7206897,13.3793103 20.0689655,9.03103448 20.0689655,3.34482759 C20.0689655,1.33793103 18.7310345,0 16.7241379,0 C14.7172414,0 13.3793103,1.33793103 13.3793103,3.34482759 C13.3793103,5.35172414 12.0413793,6.68965517 10.0344828,6.68965517 L6.68965517,6.68965517 C3.01034483,6.68965517 0,9.7 0,13.3793103 L0,40.137931 C0,53.8517241 10.3689655,64.8896552 23.4137931,66.562069 L23.4137931,68.5689655 C23.4137931,84.2896552 36.1241379,97 51.8448276,97 C67.5655172,97 80.2758621,84.2896552 80.2758621,68.5689655 L80.2758621,43.1482759 C87.9689655,41.4758621 93.6551724,34.7862069 93.6551724,26.7586207 C93.6551724,17.3931034 86.2965517,10.0344828 76.9310345,10.0344828 Z M79.2724138,29.1 C78.6034483,29.7689655 77.9344828,30.1034483 76.9310345,30.1034483 C76.5965517,30.1034483 75.9275862,30.1034483 75.5931034,29.7689655 C75.2586207,29.4344828 74.9241379,29.4344828 74.5896552,29.1 C73.9206897,28.4310345 73.5862069,27.762069 73.5862069,26.7586207 C73.5862069,25.7551724 73.9206897,25.0862069 74.5896552,24.4172414 C74.9241379,24.0827586 75.2586207,23.7482759 75.5931034,23.7482759 C76.9310345,23.0793103 78.2689655,23.4137931 79.2724138,24.4172414 C79.9413793,25.0862069 80.2758621,25.7551724 80.2758621,26.7586207 C80.2758621,27.762069 79.9413793,28.4310345 79.2724138,29.1 Z" id="Shape" fill="#B2CED4"></path>
  </g>
</svg>
