<?xml version="1.0" encoding="UTF-8"?>
<svg width="21px" height="19px" viewBox="0 0 21 19" version="1.1" xmlns="http://www.w3.org/2000/svg" xmlns:xlink="http://www.w3.org/1999/xlink">
    <title>8688095_ic_fluent_text_number_list_icon</title>
    <g id="Symbols" stroke="none" stroke-width="1" fill="none" fill-rule="evenodd">
        <g id="SL/icons/bullet-points" transform="translate(-5.000000, -6.000000)">
            <g id="8688095_ic_fluent_text_number_list_icon" transform="translate(5.000000, 6.000000)">
                <path d="M7.77777432,1 C7.34820956,1 7,1.44772 7,2 C7,2.55228 7.34820956,3 7.77777432,3 L20.2222257,3 C20.6517127,3 21,2.55228 21,2 C21,1.44772 20.6517127,1 20.2222257,1 L7.77777432,1 Z" id="Path" fill="#212121" fill-rule="nonzero"></path>
                <circle id="Oval" fill="#000000" cx="2" cy="2" r="2"></circle>
                <circle id="Oval" fill="#000000" cx="2" cy="9" r="2"></circle>
                <circle id="Oval" fill="#000000" cx="2" cy="17" r="2"></circle>
                <path d="M7.77777432,8 C7.34820956,8 7,8.44772 7,9 C7,9.55228 7.34820956,10 7.77777432,10 L20.2222257,10 C20.6517127,10 21,9.55228 21,9 C21,8.44772 20.6517127,8 20.2222257,8 L7.77777432,8 Z" id="Path" fill="#212121" fill-rule="nonzero"></path>
                <path d="M7,17 C7,16.4478 7.34820956,16 7.77777432,16 L20.2222257,16 C20.6517127,16 21,16.4478 21,17 C21,17.5522 20.6517127,18 20.2222257,18 L7.77777432,18 C7.34820956,18 7,17.5522 7,17 Z" id="Path" fill="#212121" fill-rule="nonzero"></path>
            </g>
        </g>
    </g>
</svg>