<?xml version="1.0" encoding="UTF-8"?>
<svg width="28px" height="28px" viewBox="0 0 28 28" version="1.1" xmlns="http://www.w3.org/2000/svg" xmlns:xlink="http://www.w3.org/1999/xlink">
    <title>5402394_internet_link_hyperlink_url_web_icon</title>
    <g id="Symbols" stroke="none" stroke-width="1" fill="none" fill-rule="evenodd">
        <g id="SL/icons/link" transform="translate(-1.000000, -1.000000)" fill="#101010" fill-rule="nonzero">
            <g id="5402394_internet_link_hyperlink_url_web_icon" transform="translate(1.000000, 1.000000)">
                <path d="M21.9448885,16 C21.5480764,15.9983332 21.1678126,15.8411732 20.8860769,15.5624018 C20.2996109,14.9738512 20.2996109,14.02332 20.8860769,13.4347694 L24.0927635,10.2357759 C24.6608221,9.66971024 24.9800072,8.90158213 24.9800072,8.10059869 C24.9800072,7.29961525 24.6608221,6.53148714 24.0927635,5.96542145 L21.9448885,3.82269942 C20.743802,2.69022 18.8653511,2.69022 17.6642646,3.82269942 L14.457578,7.02169288 C13.8573397,7.50079074 12.9923485,7.4545641 12.4468524,6.91423618 C11.9013563,6.37390826 11.8488632,5.51134308 12.324829,4.90915003 L15.5315155,1.71015656 C17.9275872,-0.570052188 21.6966918,-0.570052188 24.0927635,1.71015656 L26.2255125,3.83778901 C27.3616297,4.96992038 28,6.5061766 28,8.10814349 C28,9.71011037 27.3616297,11.2463666 26.2255125,12.378498 L23.0037001,15.5624018 C22.7219645,15.8411732 22.3417007,15.9983332 21.9448885,16 Z" id="Path"></path>
                <path d="M8.06544903,28 C6.48431045,28.0012607 4.96747733,27.364453 3.84882193,26.2297438 L1.74795825,24.0963604 C0.628826424,22.9611689 0,21.4207601 0,19.8144631 C0,18.2081662 0.628826424,16.6677574 1.74795825,15.5325659 L4.92160338,12.3249256 C5.51621996,11.8488183 6.36793279,11.901327 6.90146258,12.4469853 C7.43499238,12.9926437 7.48063742,13.8578922 7.00756732,14.458309 L3.84882193,17.6659493 C3.28925602,18.2335451 2.9748428,19.0037495 2.9748428,19.806898 C2.9748428,20.6100465 3.28925602,21.3802508 3.84882193,21.9478466 L5.96458535,24.0963604 C7.14771519,25.2319009 8.99808261,25.2319009 10.1812124,24.0963604 L13.3399578,20.88872 C13.6947666,20.4317702 14.2761979,20.2219412 14.8354029,20.3490385 C15.3946079,20.4761359 15.8324826,20.917635 15.9616194,21.4845771 C16.0907563,22.0515191 15.8882693,22.6434291 15.4408215,23.0069731 L12.2820761,26.2146134 C11.1658643,27.3548725 9.64872921,27.9972508 8.06544903,28 Z" id="Path"></path>
                <path d="M9.56187389,21 C9.14911645,21.0023634 8.75239208,20.840112 8.4593363,20.5490607 C8.16535839,20.2571074 8,19.8596882 8,19.4451006 C8,19.030513 8.16535839,18.6330938 8.4593363,18.3411405 L18.3511172,8.45214582 C18.9567946,7.84928473 19.9349863,7.84928473 20.5406637,8.45214582 C20.8346416,8.74409911 21,9.14151831 21,9.55610592 C21,9.97069353 20.8346416,10.3681127 20.5406637,10.660066 L10.6488828,20.5490607 C10.3596443,20.8363145 9.96925357,20.9982564 9.56187389,21 Z" id="Path"></path>
            </g>
        </g>
    </g>
</svg>