<?xml version="1.0" encoding="UTF-8"?>
<svg width="22px" height="27px" viewBox="0 0 22 27" version="1.1" xmlns="http://www.w3.org/2000/svg" xmlns:xlink="http://www.w3.org/1999/xlink">
    <title>8688095_ic_fluent_text_number_list_icon</title>
    <g id="Symbols" stroke="none" stroke-width="1" fill="none" fill-rule="evenodd">
        <g id="SL/icons/number-list" transform="translate(-4.000000, -2.000000)" fill="#212121" fill-rule="nonzero">
            <g id="8688095_ic_fluent_text_number_list_icon" transform="translate(4.000000, 2.000000)">
                <path d="M4,0.799826759 C4,0.428793832 3.74490721,0.106450076 3.38383507,0.0212000249 C3.01780314,-0.0652100542 2.65495508,0.119634393 2.48225867,0.446346254 C2.44709221,0.513371867 2.40838991,0.578605436 2.36874365,0.643038987 C2.28279543,0.782706347 2.1514252,0.980007094 1.97540093,1.20007639 C1.6187766,1.64587912 1.1041272,2.15342733 0.442380272,2.48431529 C0.0472136304,2.68192004 -0.112955334,3.16245961 0.0846359866,3.55765311 C0.282211308,3.95284662 0.7627342,4.11304248 1.15790084,3.91543772 C1.63757577,3.67559195 2.05114161,3.37734478 2.40007028,3.06904936 L2.40007028,7.19998075 C2.40007028,7.64181538 2.75823055,8 3.20003514,8 C3.64183973,8 4,7.64181538 4,7.19998075 L4,0.799826759 Z" id="Path"></path>
                <path d="M0.209171431,10.0343953 C-0.0697571407,10.3468371 -0.0697142835,10.8533549 0.209242859,11.1657487 C0.486557145,11.4762705 0.935100002,11.4780784 1.2144,11.1712046 L1.22378572,11.1615728 C1.23511429,11.150213 1.25587143,11.1300694 1.28554286,11.1039579 C1.34521429,11.051431 1.4387,10.9766965 1.56175715,10.900842 C1.8074,10.749421 2.15761429,10.601328 2.58991429,10.599984 C2.91458572,10.6072159 3.17695715,10.7035979 3.33902857,10.8380272 C3.4758,10.951449 3.57142857,11.1111098 3.57142857,11.400096 C3.57142857,11.7237375 3.47112857,11.9106938 3.2704,12.098034 C3.05417143,12.299838 2.77337143,12.4554989 2.38727143,12.6695426 C2.32177143,12.7058459 2.25231429,12.7443571 2.18057143,12.7845483 C1.73237143,13.0355193 1.17668572,13.3661047 0.743785716,13.899422 C0.284557145,14.4651707 0,15.2093158 0,16.200016 C0,16.6419272 0.319800002,17 0.714285716,17 L4.28491429,17 C4.6794,17 5,16.6419272 5,16.200016 C5,15.7582648 4.6802,15.400032 4.28571429,15.400032 L1.55607143,15.400032 C1.62082857,15.2293154 1.7059,15.0926781 1.80085715,14.9757205 C2.0376,14.6840463 2.37477143,14.4645307 2.81942857,14.2155757 C2.87437143,14.1848563 2.93224286,14.1530169 2.99228572,14.1200576 C3.3665,13.9144617 3.82648572,13.6617148 4.18495715,13.3271615 C4.65387143,12.8895062 5,12.2764625 5,11.400096 C5,10.5930081 4.68178572,9.96074879 4.1892,9.55222896 C3.72291429,9.16550069 3.14264286,9.0102078 2.60804286,9.000112 L2.59602857,9 C1.8637,9 1.27515715,9.25121098 0.872957145,9.49912602 C0.671514288,9.62329953 0.513457145,9.74857703 0.402728574,9.84606308 C0.347185716,9.8949581 0.303028574,9.93732525 0.270728574,9.96972461 C0.254557145,9.98593228 0.241314288,9.99970801 0.231042859,10.0106038 L0.217871431,10.0247955 L0.212957145,10.0301874 L0.210928574,10.0324434 L0.209171431,10.0343953 Z" id="Shape"></path>
                <path d="M2.49517515,22.2 C2.10147547,22.2 1.7823127,22.55824 1.7823127,23 C1.7823127,23.44176 2.10147547,23.8 2.49517515,23.8 C2.98389939,23.8 3.25397445,23.95472 3.39001712,24.09296 C3.52440595,24.2296 3.57959577,24.39904 3.57387861,24.57008 C3.5635421,24.87952 3.30886486,25.4 2.49517515,25.4 C1.90704937,25.4 1.6024575,25.23728 1.46487505,25.1344 C1.39279039,25.08048 1.35405345,25.0336 1.33862711,25.0128 L1.33279589,25.00464 C1.14698116,24.63712 0.734989439,24.49328 0.394212672,24.68448 C0.0420728784,24.88208 -0.100656442,25.36256 0.0754205839,25.75776 L0.0764328486,25.76 L0.077487885,25.7624 L0.0797547876,25.76736 L0.0848018538,25.77824 L0.0971628887,25.80336 C0.106430101,25.82176 0.117793128,25.84304 0.131480087,25.86704 C0.158839748,25.91472 0.195552164,25.9728 0.24335672,26.03712 C0.339308006,26.1664 0.478786673,26.31952 0.674025442,26.4656 C1.07108983,26.76272 1.65757602,27 2.49517515,27 C3.96264527,27 4.95547733,25.92048 4.9986055,24.62992 C5.01825199,24.04208 4.83032719,23.4528 4.43341964,23 C4.83032719,22.5472 5.01825199,21.95792 4.9986055,21.37008 C4.95547733,20.07952 3.96264527,19 2.49517515,19 C1.65757602,19 1.07108983,19.23728 0.674025442,19.5344 C0.478786673,19.68048 0.339308006,19.8336 0.24335672,19.96288 C0.195552164,20.0272 0.158839748,20.08528 0.131480087,20.13296 C0.117793128,20.15696 0.106430101,20.17824 0.0971628887,20.19664 L0.0848018538,20.22176 L0.0797547876,20.23264 L0.077487885,20.2376 L0.0764328486,20.24 L0.0754205839,20.24224 C-0.100656442,20.63744 0.0420728784,21.11792 0.394212672,21.31552 C0.734989439,21.50672 1.14698116,21.36288 1.33279589,20.99536 L1.33862711,20.9872 C1.35405345,20.9664 1.39279039,20.91952 1.46487505,20.8656 C1.6024575,20.76272 1.90704937,20.6 2.49517515,20.6 C3.30886486,20.6 3.5635421,21.12048 3.57387861,21.42992 C3.57959577,21.60096 3.52440595,21.7704 3.39001712,21.90704 C3.25397445,22.04528 2.98389939,22.2 2.49517515,22.2 Z" id="Shape"></path>
                <path d="M8.77777432,5 C8.34820956,5 8,5.44772 8,6 C8,6.55228 8.34820956,7 8.77777432,7 L21.2222257,7 C21.6517127,7 22,6.55228 22,6 C22,5.44772 21.6517127,5 21.2222257,5 L8.77777432,5 Z" id="Path"></path>
                <path d="M8.77777432,12 C8.34820956,12 8,12.44772 8,13 C8,13.55228 8.34820956,14 8.77777432,14 L21.2222257,14 C21.6517127,14 22,13.55228 22,13 C22,12.44772 21.6517127,12 21.2222257,12 L8.77777432,12 Z" id="Path"></path>
                <path d="M8,21 C8,20.4478 8.34820956,20 8.77777432,20 L21.2222257,20 C21.6517127,20 22,20.4478 22,21 C22,21.5522 21.6517127,22 21.2222257,22 L8.77777432,22 C8.34820956,22 8,21.5522 8,21 Z" id="Path"></path>
            </g>
        </g>
    </g>
</svg>